<svg width="108" height="110" fill="none" xmlns="http://www.w3.org/2000/svg"><path fill-rule="evenodd" clip-rule="evenodd" d="M12.9 46.262C16.062 23.45 37.325 7.621 60.392 10.907c23.066 3.286 39.202 24.442 36.04 47.255-3.161 22.812-24.424 38.642-47.49 35.356a42.543 42.543 0 01-17.002-6.3c-3.542 1.244-9.504 1.688-17.886 1.33 2.203-5.597 3.767-10.507 4.693-14.73-4.935-7.974-7.226-17.608-5.847-27.556z" fill="url(#paint0_linear)"/><path d="M77.941 49.51a6.976 6.976 0 01-4.651-6.556c.056-.476-.168-.868-.533-1.204-.308-.253-.784-.365-1.176-.309a8.16 8.16 0 01-6.305-1.709 8.378 8.378 0 01-3.11-5.855c-.028-.42-.28-.813-.644-1.065a1.365 1.365 0 00-1.233-.112c-3.81 1.373-7.397-1.037-8.826-4.315a1.416 1.416 0 00-1.597-.812c-5.38 1.204-10.218 4.581-13.524 8.84-7.65 9.835-6.865 23.367 1.709 31.969 9.33 9.301 24.377 9.301 33.68 0 4.314-4.315 7.163-10.466 7.163-17.022-.056-.925-.084-1.541-.953-1.85z" fill="#fff"/><path d="M48.263 57.618a4 4 0 00-2.633-.97 4.152 4.152 0 00-4.158 4.157 4.07 4.07 0 001.081 2.773 4.067 4.067 0 003.077 1.385c2.3 0 4.158-1.857 4.158-4.157 0-1.303-.582-2.44-1.525-3.188zm11.964-1.268c-2.268 0-4.112-1.799-4.112-4.01 0-2.21 1.844-4.009 4.112-4.009s4.112 1.799 4.112 4.01c0 2.21-1.844 4.01-4.112 4.01zm-1.371 10.692c-1.511 0-2.741-1.2-2.741-2.673s1.23-2.673 2.741-2.673c1.512 0 2.742 1.2 2.742 2.673 0 1.474-1.23 2.673-2.742 2.673zM48.748 48.33a3.122 3.122 0 01-3.118-3.118c0-1.719 1.4-3.118 3.118-3.118 1.72 0 3.119 1.4 3.119 3.118 0 1.72-1.4 3.119-3.119 3.119z" fill="#14C563"/><circle cx="69.538" cy="57.687" r="1.04" fill="#14C563"/><circle cx="40.432" cy="51.45" r="1.04" fill="#14C563"/><defs><linearGradient id="paint0_linear" x1="104.881" y1="116.316" x2="93.827" y2="-4.644" gradientUnits="userSpaceOnUse"><stop stop-color="#0BAC53"/><stop offset="1" stop-color="#20E879"/></linearGradient></defs></svg>