<svg width="24" height="24" fill="none" xmlns="http://www.w3.org/2000/svg"><path fill-rule="evenodd" clip-rule="evenodd" d="M15 20.12h2c1.103 0 2-.862 2-1.92v-5.76h2c.404 0 .77-.234.924-.593a.93.93 0 00-.217-1.045l-9-8.64a1.03 1.03 0 00-1.414 0l-9 8.64a.93.93 0 00-.217 1.045 1 1 0 00.924.592h2v5.76c0 1.06.897 1.92 2 1.92h2c1.103 0 2-.86 2-1.92v-2.88h2v2.88c0 1.06.897 1.92 2 1.92zm-1-6.72h-4c-.553 0-1 .43-1 .96v3.84H7v-6.72c0-.53-.448-.96-1-.96h-.586L12 4.197l6.586 6.321H18c-.552 0-1 .431-1 .96l.001 6.72h-2v-3.84c0-.528-.449-.96-1-.96z" fill="#fff"/></svg>