<svg width="24" height="24" fill="none" xmlns="http://www.w3.org/2000/svg"><path fill-rule="evenodd" clip-rule="evenodd" d="M20 7.97h-3.115a4.96 4.96 0 001.236-.878 3.002 3.002 0 000-4.242c-1.134-1.133-3.108-1.133-4.242 0C12.242 4.487 12.02 7.568 12 7.914c-.02-.347-.242-3.428-1.879-5.064-1.134-1.133-3.11-1.132-4.242 0A2.982 2.982 0 005 4.97c0 .802.313 1.556.879 2.122.357.358.784.644 1.236.879H4c-1.104 0-2 .897-2 2v3a1 1 0 001 1v6c0 1.103.896 2 2 2h14c1.104 0 2-.897 2-2v-6a1 1 0 001-1v-3c0-1.103-.896-2-2-2zm-12 12H5v-6h3v6zm-4-8h4v-2H4v2zm3.293-6.292A.993.993 0 017 4.97c0-.267.104-.518.293-.707A.99.99 0 018 3.972c.268 0 .518.104.707.293.59.589.934 1.647 1.118 2.53-.88-.185-1.945-.53-2.532-1.117zM10 13.97v6h4v-6h-4zm0-2v-2h4v2h-4zm6-8a.991.991 0 00-.707.294c-.59.59-.935 1.649-1.119 2.532.883-.183 1.942-.528 2.533-1.12a1 1 0 000-1.413.995.995 0 00-.707-.291zm3 16h-3v-6h3v6zm-3-8h4v-2h-4v2z" fill="#7388E4"/></svg>