<svg width="116" height="89" xmlns="http://www.w3.org/2000/svg"><defs><linearGradient x1="71.016%" y1="28.567%" x2="27.465%" y2="91.008%" id="a"><stop stop-color="#FFD1BC" offset="0%"/><stop stop-color="#FF4D7B" offset="100%"/></linearGradient></defs><g fill="none" fill-rule="evenodd"><path d="M31.688 72a6.25 6.25 0 110 12.5 6.25 6.25 0 010-12.5zm35.562 0a6.25 6.25 0 110 12.5 6.25 6.25 0 010-12.5zM2.474.511l.124.046 16.35 6.776.119.063.112.072.106.082.09.083c.036.035.07.071.101.11l.09.118.061.095.063.12.053.124.042.13.03.134.014.094 1.659 13.754h17.06l2 17.188h-12.14l-.145.007a1.5 1.5 0 000 2.986l.145.007h12.488l2.047 17.6h-16.9l.614 5.085c.089.735.68 1.3 1.405 1.368l.146.007h46.954a1.562 1.562 0 01.143 3.119l-.143.006H28.208a4.688 4.688 0 01-4.623-3.914l-.03-.212-.77-6.376a1.557 1.557 0 01-.112-.933l-5.781-47.943-4.163-1.65C4.58 5.395.485 3.535.444 3.077L.437 2A1.563 1.563 0 012.474.511zM61.31 42.5l-2.27 17.6H45.963l-2.048-17.6h17.393zm3.025 0h21.59l-6.652 16.62c-.22.546-.726.92-1.305.974l-.146.007H62.063l2.27-17.601zm2.602-20.188h24.761c1.062 0 1.8 1.03 1.495 2.02l-.044.124L87.126 39.5H64.72l2.215-17.188zm-25.369 0h22.344L61.697 39.5h-18.13l-1.998-17.188z" fill="url(#a)" transform="translate(0 4)"/><path d="M90.558 3.386a5 5 0 00-1.647 1.646L73.886 29.516a4.984 4.984 0 00-.6 3.779 5 5 0 004.863 3.836h30.049c1.38 0 2.63-.56 3.535-1.465a5 5 0 00.726-6.15L97.434 5.032a4.984 4.984 0 00-3.097-2.247 4.984 4.984 0 00-3.78.601z" stroke="#FFF" stroke-width="2" fill="#FC3"/><text font-family="HeroNew-Bold, Hero New" font-size="21" font-weight="bold" fill="#29174D" transform="translate(71)"><tspan x="19.445" y="30">!</tspan></text></g></svg>