<svg xmlns="http://www.w3.org/2000/svg" xmlns:xlink="http://www.w3.org/1999/xlink" width="1728" height="1728" preserveAspectRatio="xMidYMid meet" viewBox="0 0 1728 1728" style="-ms-transform: rotate(360deg); -webkit-transform: rotate(360deg); transform: rotate(360deg);"><path d="M992 420l316 316l-572 572l-316-316zm-211 979l618-618q19-19 19-45t-19-45l-362-362q-18-18-45-18t-45 18L329 947q-19 19-19 45t19 45l362 362q18 18 45 18t45-18zm889-637l-907 908q-37 37-90.5 37t-90.5-37l-126-126q56-56 56-136t-56-136t-136-56t-136 56L59 1146q-37-37-37-90.5T59 965L966 59q37-37 90.5-37t90.5 37l125 125q-56 56-56 136t56 136t136 56t136-56l126 125q37 37 37 90.5t-37 90.5z" fill="#626262"/><rect x="0" y="0" width="1728" height="1728" fill="rgba(0, 0, 0, 0)" /></svg>