<svg width="21" height="18" xmlns="http://www.w3.org/2000/svg"><g fill="none" fill-rule="evenodd"><path fill="#FF4C88" d="M19.5 10.5V1h-3.2v2.247L11.23 1H3.334L.964 12H8v5h3.231l2.873-6.5L16.3 10l.7 1.167z"/><path d="M3.834 2h6.973L15 3.677V9h-1c-.4 0-.762.238-.919.606L10.341 16H9v-4a1 1 0 00-1-1H2.197l1.636-9zm13.167 0h2v8h-2V2zM.233 12.641A1 1 0 001 13h6v4a1 1 0 001 1h3a.999.999 0 00.918-.605L14.66 11H15a1 1 0 001 1h4a1 1 0 001-1V1a1 1 0 00-1-1h-4a1 1 0 00-1 1v.522L11.373.071A1.003 1.003 0 0011 0H3a1 1 0 00-.984.821l-2 11a.997.997 0 00.216.82z" fill="#C04"/></g></svg>