<svg width="21" height="18" fill="none" xmlns="http://www.w3.org/2000/svg"><path fill-rule="evenodd" clip-rule="evenodd" d="M1.5 7.5V17h3.2v-2.247L9.77 17h7.897l2.37-11H13V1H9.769L6.896 7.5 4.7 8 4 6.833 1.5 7.5z" fill="#2BCE74"/><path fill-rule="evenodd" clip-rule="evenodd" d="M17.166 16h-6.973L6 14.323V9h1c.4 0 .762-.238.919-.606L10.659 2H12v4a1 1 0 001 1h5.803l-1.636 9zM4 16H2V8h2v8zM20.767 5.359A1.002 1.002 0 0020 5h-6V1a1 1 0 00-1-1h-3a.999.999 0 00-.918.605L6.34 7H6a1 1 0 00-1-1H1a1 1 0 00-1 1v10a1 1 0 001 1h4a1 1 0 001-1v-.522l3.629 1.451c.118.047.244.071.37.071h8a1 1 0 00.985-.821l2-11a.997.997 0 00-.217-.82z" fill="#018B3F"/></svg>