<svg width="98" height="41" xmlns="http://www.w3.org/2000/svg"><path d="M89.63 30.84l.112.002c3.136.084 4.772.755 7.61 1.856 1.428.553.044-1.502-1.2-2.427-1.246-.925-2.22-1.584-4.674-1.983-2.454-.398-5.394-.615-8.177.218 2.13-2.859 3.93-4.192 7.416-6.589.826-.568 1.902-.999 2.52-1.453 1.31-.963 1.794-1.756 1.168-3.917a29.96 29.96 0 00-5.53-.786c.038-.61.232-1.757.456-2.96.108-.58-1.368-.694-1.903-.253-.549.453-.768 1.766-.884 3.174a40.52 40.52 0 00-7.12.778c-1.271.25-1.111 1.096-1.058 1.763.053.666.85 1.442 1.735 1.244 4.292-.96 7.371-.84 9.677-.507-2.056 1.265-4.567 3.001-6.091 4.327-2.268 1.973-3.466 3.245-4.725 5.497-.201.36-.738 1.306-.559 2.258.227.673.67 1.227 1.126 1.14.696-.132 3.72-1.015 7.363-1.3.03.714-.055 2.085-.17 3.524-.056.692 1.687.642 2.259.061.569-.578.676-2.064.648-3.668zM76.071 16.464c-.227-.248-.993-.512-1.623-.539-.843-.035-1.518.25-1.605.972-.306 2.551-.445 6.179-.84 9.221-.422 3.258-2.414 4.36-3.734 4.118-2.136-.392-2.691-2.811-2.568-6.463.133-3.94 1.31-7.723.691-7.857-2.878-.62-4.831 3.078-4.605 9.712.12 3.51 1.178 6.783 4.523 8.02 3.346 1.237 6.522-1.64 6.867-2.668.066.715.216 2.57.347 2.85.227.485 1.549-.003 2.173-.344.528-.288.995-.711.907-1.392-.478-3.676-.465-5.702-.476-9.49-.002-.704-.057-6.14-.057-6.14zM55.98 13.322c.139.601.746 1.187 1.267 1.393.557.22.976.241 1.426.095.184-.06.822-.35.89-.377.112-.046.223-.087.338-.125.729-.239 1.23-1.23 1.057-2.054-.214-1.016-1.256-1.414-2.869-.981-1.604.43-2.317 1.146-2.11 2.049zm-.81 19.57c.213.912 1.15 1.282 2.315 1.182 1.04-.09 1.98-.518 1.96-1.074-.015-.376-.467-3.23-.457-3.158-.59-4.084-.665-7.734.085-11.521.144-.728-.578-1.406-1.498-1.577-1.013-.188-1.89.295-2.116 1.368-.695 3.295-.975 9.4-.289 14.78zM34.071 14.723a62.684 62.684 0 011.663-.96c2.342-1.324 2.298-1.299 2.677-1.555 1.333-.903.926-2.311-.644-2.711-1.387-.354-6.655 3.799-6.53 4.96.135 1.23 1.238 1.227 2.834.266zm18.75.64C54.605 9.295 54.005.873 50.698.067c-3.262-.796-6.681 5.548-7.352 11.155-.622 5.197-.39 9.253.407 12.88.145.661.216.79.517 1.93-1.086 2.164-4.548 4.914-7.786 4.95-2.778.031-4.244-2.047-4.678-4.213.438.038 1.419.024 2.244-.092 1.216-.17 2.375-.375 3.569-.924 2.477-1.14 3.88-3.589 3.236-5.747-.595-1.999-1.865-3.327-4.278-3.753-3.886-.686-8.008 1.88-8.995 5.961-1.085 4.482 1.067 10.054 4.864 11.6 3.157 1.286 6.068.876 8.686-.82 1.8-1.166 2.913-2.29 4.088-4.055 1.86 3.663 4.07 7.582 8.663 10.175 6.482 3.657 14.24 1.528 17.796-2.423.297-.331.222-.75-.23-.81-.195-.025-.47.034-.923.178-.268.085-7.694 3.677-14.668.924-3.687-1.456-7.045-6.466-8.049-10.244 2.691-3.801 3.5-6.22 5.014-11.377zM36.113 23.03c-1.551 1.232-3.328 1.414-4.639 1.355-.028-1.223.136-2.22.302-2.83.633-2.32 2.407-3.502 4.312-2.906 1.782.637 1.914 2.882.025 4.381zm11.474-11.404c.758-3.344 1.953-5.822 2.626-5.854.5-.023.813.7.835 2.181.022 1.44-.242 3.456-.731 5.724-.96 4.449-2.483 8.48-3.328 9.657l-.033.022c-.744-3.764-.273-7.738.631-11.73zM13.541 31.313c1.056-.438 1.316-1.497 1.394-2.448.324-3.918 3.15-11.809 6.107-15.187.05-.27-1.657 8.393-1.016 13.128.641 4.735 2.77 10.772 10.64 12.161 1.914.357 4.07-.27 4.2-.793.129-.521-1.129-.467-2.58-.886-4.277-1.237-6.708-4.395-7.93-8.834-1.221-4.438-.453-12.709.516-16.941.19-.828.83-1.708 1.1-2.63.171-.588-.123-1.03-.724-1.178-.432-.105-1.026-.064-1.75.095-1.246.272-3.595 1.676-5.585 4.48-1.99 2.806-4.1 7.876-4.712 9.518-.808-2.726-2.303-12.024-2.12-14.223.185-2.2.52-2 .63-3.138.154-1.59-.184-2.654-1.532-2.856-1.348-.203-2.571.629-3.354 1.768-.783 1.139-2.744 4.94-4.461 13.377C.646 25.162.006 31.73 0 33.514c-.006 1.783.52 2.804 1.945 2.892 1.511.093 2.642-.754 2.636-2.242-.02-5.401.08-7.023.602-12.09.521-5.068 1.278-8.189 2.38-11.758.259 7.762 1.93 14.936 3.546 19.562.439 1.258 1.276 1.915 2.432 1.435z" fill="#FF3859" fill-rule="evenodd"/></svg>