<svg width="109" height="108" fill="none" xmlns="http://www.w3.org/2000/svg"><path fill-rule="evenodd" clip-rule="evenodd" d="M43.153 18.723c-1.745 3.86-2.816 6.801.13 11.244 2.012 3.034 7.855 2.435 12.548 2.92 9.38.972 8.934 3.393 10.259 6.096 1.324 2.702-1.613 3.707-1.197 8.45.162 1.835 8.282 22.605 17.312 23.485 5.843.569 15.492-1.816 20.905-7.369 5.413-5.552 5.677-10.6 5.139-16.734-.959-10.906-7.53-17.1-18.489-20.897-10.959-3.797-7.864-6.122-19.117-13.297-11.253-7.175-25.745 2.243-27.49 6.102z" fill="url(#paint0_linear)"/><path d="M55.145 0C25.518 0 1.5 24.112 1.5 53.856c0 29.744 24.017 53.856 53.644 53.856 29.625 0 53.643-24.112 53.643-53.856C108.788 24.112 84.771 0 55.145 0z" fill="url(#paint1_linear)"/><mask id="a" maskUnits="userSpaceOnUse" x="1" y="0" width="108" height="108"><path d="M55.145 0C25.518 0 1.5 24.112 1.5 53.856c0 29.744 24.017 53.856 53.644 53.856 29.625 0 53.643-24.112 53.643-53.856C108.788 24.112 84.771 0 55.145 0z" fill="#fff"/></mask><g mask="url(#a)"><path fill-rule="evenodd" clip-rule="evenodd" d="M116.344 272.075c-.675-2.354-39.413-58.451-42.095-59.703-2.682-1.252-6.023-4.111-6.83-6.927-.807-2.817.343-3.222-4.498-12.082-4.84-8.86-11.789-53.863-12.409-56.026-.62-2.164 3.166-22.217 3.166-22.217l10.97-11.388s6.569 9.859 9.6 20.44c3.033 10.581 16.467.431 11.754 13.165 1.972 14.908-3.304 45.454-1.804 51.051 2.55 9.518 14.013 16.578 17.931 25.222 3.918 8.645 17.484 46.986 18.341 49.977.857 2.991-3.452 10.842-4.126 8.488z" fill="url(#paint2_linear)"/><path fill-rule="evenodd" clip-rule="evenodd" d="M58.465 277.524c.633-2.365-8.669-62.673-10.99-68.603-2.32-5.93-.587-12.11-.338-22.243.25-10.132-3.723-31.744-3.834-44.41-.112-12.667-1.453-19.316 0-20.801 4.22-4.315 31.417-2.835 31.417-2.835l4.536-8.371s10.092 16.443 7.245 27.076c-1.166 4.354 1.998 9.189-4.698 21.624-7.205 13.43-12.277 29.883-12.277 34.846 0 4.962 7.602 28.24 4.813 40.053-2.79 11.812-6.75 39.668-7.556 42.674-.804 3.005-8.951 3.356-8.318.99z" fill="#FF0050"/><path fill-rule="evenodd" clip-rule="evenodd" d="M50.53 50.178s3.368 4.509 3.142 7.088c-.225 2.578-2.142 6.422-2.142 6.422s2.998.288 6.858-.27c3.86-.56 8.666-6.593 8.666-6.593L64.011 42.69l-13.48 7.487z" fill="url(#paint3_linear)"/><path fill-rule="evenodd" clip-rule="evenodd" d="M44.685 36.47s-.927 1.784-1.293 2.415c-.608 1.048-1.128 1.663-1.062 2.06.158.95 2.357.946 2.357.946l-.002-5.42z" fill="#FB6948"/><path fill-rule="evenodd" clip-rule="evenodd" d="M45.602 30.125s-1.476 7.642-1.093 12.49c.384 4.85 2.718 11.01 2.718 11.01s10.553-.276 14.464-3.501c3.91-3.225 5.944-13.553 5.944-13.553s.58-10.07-6.26-12.48c-6.842-2.41-15.773 6.034-15.773 6.034z" fill="#FF8266"/><path fill-rule="evenodd" clip-rule="evenodd" d="M44.331 19.195c-2.09 3.736-3.423 6.605-.86 11.34 1.75 3.232 7.661 3.141 12.324 4.043 9.32 1.801 8.66 4.2 9.75 7.04 1.09 2.84-1.945 3.594-1.945 8.408 0 1.863 6.312 23.501 15.289 25.18 5.808 1.085 15.693-.471 21.611-5.59 5.917-5.12 6.627-10.182 6.627-16.41.001-11.07-6.042-17.887-16.697-22.674-10.654-4.786-7.345-6.857-17.996-15.073-10.651-8.216-26.012.001-28.103 3.736z" fill="url(#paint4_linear)"/><path fill-rule="evenodd" clip-rule="evenodd" d="M44.331 19.195c-2.09 3.736-3.423 6.605-.86 11.34 1.75 3.232 7.661 3.141 12.324 4.043 9.32 1.801 8.66 4.2 9.75 7.04 1.09 2.84-1.945 3.594-1.945 8.408 0 1.863 8.45 29.712 17.427 31.39 5.808 1.087 15.693-.47 21.61-5.59 5.917-5.118 9.659-14.972 9.659-21.199.001-11.07-11.211-19.308-21.866-24.095-10.654-4.786-7.345-6.857-17.996-15.073-10.651-8.216-26.012.001-28.103 3.736z" fill="url(#paint5_linear)"/><ellipse cx="65.701" cy="39.668" rx="2.158" ry="3.216" transform="rotate(5 65.701 39.668)" fill="#FF8266"/><path fill-rule="evenodd" clip-rule="evenodd" d="M47.337 80.133s-4.079-2.412 1.69-12.802c5.77-10.391 15.445-11.206 15.445-11.206s7.583 10.64 8.761 16.007c1.179 5.367-25.896 8.001-25.896 8.001z" fill="#FF8266"/><path fill-rule="evenodd" clip-rule="evenodd" d="M41.878 96.515c-.41 4.694-5.005 37.467-2.504 44.745 2.502 7.277 1.756-3.148 21.13 14.549 19.373 17.697 30.065 5.307 31.859.749 1.793-4.557-3.885-30.094-6.628-36.544-2.742-6.451-7.07-25.652-6.642-30.54.427-4.886-2.448-28-12.24-28.857-9.793-.857-13.745 6.86-13.745 6.86s-3.767 3.31-6.621 3.31c-2.436 5.684-4.198 21.034-4.609 25.728z" fill="url(#paint6_linear)"/><path fill-rule="evenodd" clip-rule="evenodd" d="M60.925 64.017S50.129 75.819 57.879 89.02s14.547.026 16.273-4.263c1.726-4.29.12-16.502-3.918-20.266-4.038-3.764-9.31-.474-9.31-.474z" fill="#FF8266"/><path fill-rule="evenodd" clip-rule="evenodd" d="M36.721 62.781s-9.307 12.04-13.442 21.101c-4.135 9.062-5.44 18.704-3.21 22.262 2.231 3.558 6.23 3.912 15.429 3.929 9.198.016 31.76-16.854 31.76-16.854l-7.305-28.113-28.826 28.113s4.648-9.864 6.955-17.18c2.308-7.317 3.622-12.272 3.622-12.272l-4.983-.986z" fill="#FF8266"/><path fill-rule="evenodd" clip-rule="evenodd" d="M42.14 50.973s-6.354 13.311-5.99 14.131c.22.495.923 2.997 2.342 3.713.937.473 2.716-2.61 3.861-3.638.761-.683 1.966-2.198 2.686-3.372.721-1.174 2.33-3.335 1.965-4.155-.364-.82-.841-4.787-.841-4.787s1.142-6.488 0-6.879c-1.142-.39-4.024 4.987-4.024 4.987z" fill="#FF8266"/></g><path fill-rule="evenodd" clip-rule="evenodd" d="M35.507 27.32c-1.147-8.458-9.13-14.289-17.83-13.024-8.7 1.265-14.825 9.147-13.678 17.605 1.146 8.457 9.129 14.288 17.83 13.023a16.358 16.358 0 006.42-2.371c1.332.454 3.579.607 6.738.458-.819-2.073-1.398-3.891-1.74-5.456 1.877-2.968 2.76-6.547 2.26-10.235z" fill="url(#paint7_linear)"/><path fill-rule="evenodd" clip-rule="evenodd" d="M21.818 31.301c-.177.244-.36.497-.548.76l-3.248.341c.341-.512.656-.97.943-1.388 1.256-1.83 1.96-2.854 1.843-3.964-.14-1.32-1.171-2.16-2.636-2.005-1.316.138-2.538 1.17-3.331 2.201l-.358-3.407c.941-1.046 2.44-1.893 4.223-2.08 3.163-.332 5.275 1.792 5.508 4.007.205 1.947-.865 3.423-2.396 5.535zm.151 4.756a1.903 1.903 0 01-1.709 2.117c-1.061.111-2-.651-2.112-1.716a1.903 1.903 0 011.71-2.117c1.082-.114 1.997.63 2.111 1.715z" fill="#fff"/><defs><linearGradient id="paint0_linear" x1="108.442" y1="71" x2="108.442" y2="10" gradientUnits="userSpaceOnUse"><stop stop-color="#231653"/><stop offset="1" stop-color="#4411CD"/></linearGradient><linearGradient id="paint1_linear" x1="-.453" y1="40.283" x2="-.453" y2="139.398" gradientUnits="userSpaceOnUse"><stop stop-color="#FFD1BC"/><stop offset="1" stop-color="#FF80A2"/></linearGradient><linearGradient id="paint2_linear" x1="114.966" y1="204.333" x2="67.689" y2="207.263" gradientUnits="userSpaceOnUse"><stop stop-color="#FE0150"/><stop offset="1" stop-color="#E7045C"/></linearGradient><linearGradient id="paint3_linear" x1="62.386" y1="55.385" x2="59.368" y2="50.157" gradientUnits="userSpaceOnUse"><stop stop-color="#FF8266"/><stop offset="1" stop-color="#FB6948"/></linearGradient><linearGradient id="paint4_linear" x1="105.189" y1="77.59" x2="110.566" y2="16.134" gradientUnits="userSpaceOnUse"><stop stop-color="#231653"/><stop offset="1" stop-color="#4411CD"/></linearGradient><linearGradient id="paint5_linear" x1="109.791" y1="84.016" x2="115.69" y2="16.583" gradientUnits="userSpaceOnUse"><stop stop-color="#231653"/><stop offset="1" stop-color="#0A2599"/></linearGradient><linearGradient id="paint6_linear" x1="141.281" y1="87.541" x2="71.429" y2="72.744" gradientUnits="userSpaceOnUse"><stop stop-color="#E4E3F0"/><stop offset="1" stop-color="#fff"/></linearGradient><linearGradient id="paint7_linear" x1=".699" y1="53.494" x2="4.508" y2="8.543" gradientUnits="userSpaceOnUse"><stop stop-color="#0BAC53"/><stop offset="1" stop-color="#20E879"/></linearGradient></defs></svg>