<svg width="24" height="24" xmlns="http://www.w3.org/2000/svg"><g fill="#FFF" fill-rule="evenodd"><path fill-opacity=".01" d="M0 24h24V0H0z"/><path d="M22.454 6.818c.246.684.387 1.44.405 2.246C22.789 16.208 16.975 22 9.865 22c-3.332 0-6.058-1.22-7.777-3.362L1 17.281l1.725-.25c1.509-.219 2.537-.527 3.39-.998-1.76-1.43-2.919-3.5-2.91-6.048C3.216 7.752 3.68 5.88 5 3.58L5.907 2l.846 1.614c1.225 2.334 2.92 3.871 5.112 4.318.061-2.538 2.58-4.853 5.45-4.853 1.16 0 2.217.352 3.089.973l1.183-1.18L24 5.278l-1.546 1.54zM5 18.6c1.28.9 2.956 1.4 4.942 1.4C15.985 20 20.94 15.071 21 9.022 20.947 6.625 19.424 5 17.435 5c-1.85 0-3.488 1.534-3.472 2.989l-.004.105c-.007.07-.007.15 0 .47.003.176.004.296.004.436v1.046l-1.05-.047c-2.92-.13-5.22-1.586-6.903-3.937-.547 1.31-.75 2.498-.755 3.88-.008 2.319 1.296 4.122 3.176 5.19l1.247.708-1.097.923C7.57 17.615 6.491 18.2 5 18.6z" fill-rule="nonzero"/></g></svg>