<svg width="80" height="192" xmlns="http://www.w3.org/2000/svg"><path d="M60.245 16.318v-.22c.17-6.142 1.473-9.348 3.622-14.911 1.084-2.797-2.925-.09-4.736 2.357a17.674 17.674 0 00-3.86 9.158c-.776 4.804-1.204 10.567.428 15.98-5.582-4.174-8.188-7.7-12.864-14.531-1.115-1.618-1.99-3.726-2.846-4.934-1.88-2.567-3.422-3.526-7.64-2.297a59.623 59.623 0 00-1.543 10.836c-1.184-.07-3.422-.45-5.77-.889-1.134-.21-1.353 2.677-.497 3.726.855 1.048 3.452 1.508 6.198 1.737a80.09 80.09 0 001.512 13.983c.497 2.497 2.149 2.177 3.442 2.077a2.995 2.995 0 002.438-3.405 50.98 50.98 0 01-.995-18.977 102.303 102.303 0 008.447 11.985c3.86 4.445 6.337 6.792 10.734 9.259a6.943 6.943 0 004.408 1.099c1.313-.45 2.397-1.319 2.228-2.208a93.122 93.122 0 01-2.537-14.432c1.393-.06 4.07.1 6.875.33 1.353.11 1.254-3.306.12-4.425-1.135-1.118-4.03-1.328-7.154-1.278l-.01-.02zM32.14 42.895a5.678 5.678 0 00-1.055 3.176c-.07 1.658.487 2.996 1.9 3.146 4.975.61 12.058.879 17.998 1.648 6.367.829 8.516 4.734 8.039 7.32-.767 4.186-5.482 5.274-12.616 4.995-7.69-.26-15.082-2.567-15.34-1.359-1.205 5.643 5.968 9.479 18.962 8.99 6.855-.23 13.242-2.308 15.66-8.86 2.417-6.552-3.204-12.784-5.214-13.463 1.87-.11 3.73-.336 5.571-.68.995-.449 0-2.995-.676-4.254a2.726 2.726 0 00-2.716-1.788 123.647 123.647 0 01-18.525.94c-1.373 0-11.939.109-11.939.109l-.05.08zM26 82.276a4.374 4.374 0 002.716-2.487c.412-.871.48-1.867.19-2.786-.12-.37-.687-1.618-.737-1.748l-.249-.66a3.628 3.628 0 00-3.98-2.077c-1.99.42-2.755 2.467-1.91 5.623.846 3.156 2.239 4.545 3.98 4.135H26zm38.224 1.588c1.78-.42 2.507-2.257 2.308-4.534-.17-2.048-.995-3.886-2.09-3.846-.736 0-6.307.92-6.168.9a64.58 64.58 0 01-22.494-.17c-1.423-.28-2.746 1.138-3.084 2.936-.24.91-.086 1.878.424 2.667a3.322 3.322 0 002.252 1.478c6.437 1.368 18.356 1.917 28.852.57zm-35.488 41.359c-.418-.71-.905-1.548-1.522-2.637l-.348-.63c-2.587-4.584-2.537-4.504-3.045-5.243-1.76-2.616-4.507-1.817-5.293 1.259-.686 2.726 7.422 13.044 9.69 12.804 2.27-.24 2.398-2.427.518-5.553zm1.244-36.755C18.14 84.973 1.696 86.151.134 92.633c-1.562 6.482 10.834 13.094 21.778 14.412 10.148 1.219 18.067.76 25.15-.799 1.284-.29 1.543-.43 3.762-.998 4.228 2.127 9.6 8.918 9.67 15.26.06 5.444-3.98 8.32-8.228 9.17a23.762 23.762 0 00-.179-4.395 24.045 24.045 0 00-1.8-6.992c-2.23-4.864-6.965-7.61-11.223-6.352-3.9 1.169-6.497 3.656-7.332 8.39-1.233 7.994 3.79 15.618 11.6 17.608 8.755 2.127 19.63-2.087 22.654-9.528a17.666 17.666 0 00-1.602-16.98 25.32 25.32 0 00-7.96-7.99c7.154-3.645 14.805-7.99 19.899-16.978 7.133-12.704 2.984-27.965-4.736-34.887-.647-.58-1.462-.43-1.582.45a4.79 4.79 0 00.348 1.817c.17.52 7.183 15.082 1.801 28.745-2.835 7.23-12.615 13.812-19.997 15.78-7.422-5.273-12.148-6.861-22.216-9.828l.04-.07zm14.923 32.75a13.36 13.36 0 012.646 9.088 19.616 19.616 0 01-5.521-.589c-4.527-1.238-6.835-4.714-5.681-8.45 1.254-3.495 5.631-3.755 8.556-.05zM22.638 98.726c-6.526-1.479-11.361-3.826-11.43-5.144 0-.999 1.372-1.598 4.257-1.638 3.768.084 7.516.566 11.183 1.438 8.685 1.878 16.555 4.864 18.903 6.522v.06c-7.343 1.458-15.103.54-22.883-1.238h-.03zm38.493 66.697c-.886-1.998-2.876-2.547-4.786-2.697-7.65-.639-23.051-6.172-29.647-11.985-.528-.09 16.385 3.256 25.628 1.998 9.242-1.259 21.032-5.434 23.748-20.855.696-3.755-.537-7.99-1.552-8.23-1.015-.239-.915 2.208-1.731 5.054-2.418 8.39-8.566 13.154-17.242 15.551-8.675 2.397-24.872.889-33.08-.999-1.621-.37-3.333-1.628-5.133-2.157a1.715 1.715 0 00-1.491.151 1.728 1.728 0 00-.808 1.267 8.02 8.02 0 00.18 3.436c.537 2.437 3.273 6.991 8.755 10.986 5.481 3.995 15.38 7.98 18.574 9.179-5.323 1.588-23.47 4.514-27.767 4.155-4.298-.36-3.91-.999-6.129-1.229-3.104-.31-5.183.36-5.571 2.997-.388 2.636 1.224 4.993 3.452 6.581 2.229 1.588 9.64 5.374 26.116 8.77 16.475 3.395 29.3 4.594 32.772 4.604 3.472.01 5.482-.999 5.65-3.815.18-2.997-1.472-5.174-4.377-5.164a171.08 171.08 0 01-23.609-1.179 107.222 107.222 0 01-22.952-4.664 134.56 134.56 0 0038.194-6.991c2.457-.859 3.74-2.507 2.806-4.764z" fill="#FFF"/></svg>