<svg width="76" height="32" xmlns="http://www.w3.org/2000/svg"><path d="M69.557 23.94l.088.002c2.433.065 3.702.586 5.906 1.44 1.108.43.033-1.165-.933-1.883-.966-.718-1.722-1.23-3.627-1.54-1.904-.309-4.185-.477-6.346.17 1.654-2.22 3.051-3.255 5.756-5.115.64-.44 1.476-.776 1.955-1.128 1.016-.748 1.393-1.363.907-3.04a23.244 23.244 0 00-4.291-.611c.03-.473.18-1.364.354-2.298.083-.45-1.062-.538-1.477-.196-.426.351-.597 1.37-.686 2.464a31.437 31.437 0 00-5.527.603c-.985.194-.861.852-.82 1.369.041.517.66 1.12 1.346.966 3.331-.745 5.721-.652 7.51-.394-1.596.982-3.544 2.33-4.727 3.36-1.76 1.53-2.69 2.518-3.666 4.266-.157.28-.573 1.014-.434 1.753.176.523.52.953.874.885.54-.103 2.887-.788 5.713-1.01.024.556-.042 1.62-.132 2.737-.043.537 1.31.498 1.753.047.442-.449.526-1.602.504-2.847zM59.036 12.782c-.176-.193-.77-.398-1.26-.419-.654-.027-1.178.194-1.245.755-.238 1.98-.346 4.796-.652 7.158-.327 2.529-1.874 3.384-2.898 3.196-1.657-.304-2.089-2.182-1.993-5.017.103-3.059 1.017-5.995.536-6.099-2.233-.48-3.749 2.39-3.574 7.54.093 2.724.914 5.265 3.51 6.225 2.597.96 5.062-1.273 5.33-2.07.051.554.168 1.994.269 2.21.176.378 1.202-.001 1.686-.266.41-.224.773-.552.704-1.08-.37-2.854-.36-4.427-.369-7.368-.001-.545-.044-4.765-.044-4.765zm-15.593-2.44c.108.466.58.921.983 1.08.433.172.758.188 1.107.075.143-.047.638-.272.69-.293a3.79 3.79 0 01.263-.097c.566-.185.955-.955.82-1.595-.166-.789-.974-1.097-2.226-.761-1.245.334-1.798.89-1.637 1.59zm-.628 15.19c.165.71.891.996 1.796.919.808-.07 1.537-.402 1.52-.834-.01-.292-.361-2.508-.353-2.45-.459-3.172-.516-6.005.066-8.945.112-.565-.45-1.091-1.163-1.224-.786-.146-1.466.229-1.642 1.062-.54 2.558-.757 7.297-.224 11.473zM26.44 11.43a48.643 48.643 0 011.29-.745c1.818-1.028 1.784-1.008 2.078-1.208 1.034-.7.718-1.794-.5-2.104-1.076-.275-5.165 2.95-5.067 3.85.104.956.96.953 2.2.207zm14.551.496C42.375 7.216 41.91.68 39.343.053c-2.531-.618-5.185 4.306-5.705 8.66-.483 4.033-.303 7.182.315 9.997.113.514.169.614.402 1.5-.843 1.678-3.53 3.813-6.042 3.841-2.156.025-3.294-1.588-3.63-3.27.339.03 1.1.019 1.74-.071.945-.133 1.844-.292 2.77-.718 1.923-.885 3.011-2.785 2.512-4.461-.462-1.552-1.447-2.583-3.32-2.914-3.016-.532-6.215 1.46-6.981 4.628-.842 3.48.828 7.805 3.775 9.005 2.45.998 4.709.68 6.74-.636 1.398-.906 2.261-1.778 3.173-3.148 1.444 2.843 3.158 5.885 6.723 7.898 5.03 2.84 11.051 1.187 13.81-1.88.231-.258.173-.584-.177-.63-.152-.02-.366.027-.717.138-.208.066-5.971 2.855-11.383.718-2.862-1.13-5.467-5.02-6.246-7.952 2.088-2.951 2.715-4.83 3.89-8.832zM28.025 17.88c-1.204.956-2.583 1.097-3.6 1.052-.022-.95.105-1.724.234-2.197.49-1.8 1.868-2.719 3.346-2.257 1.384.495 1.486 2.238.02 3.402zm8.904-8.853c.588-2.596 1.516-4.52 2.038-4.544.388-.019.631.542.648 1.693.017 1.117-.188 2.682-.567 4.443-.745 3.453-1.927 6.582-2.583 7.497l-.025.016c-.578-2.921-.213-6.007.49-9.105zM10.51 24.308c.819-.34 1.02-1.162 1.082-1.9.25-3.042 2.443-9.167 4.739-11.79.039-.21-1.286 6.515-.789 10.19.498 3.677 2.15 8.363 8.258 9.441 1.485.278 3.159-.21 3.259-.615.1-.405-.876-.362-2.003-.688-3.319-.96-5.205-3.412-6.153-6.858-.948-3.445-.352-9.865.4-13.15.147-.643.644-1.326.853-2.042.134-.457-.095-.8-.561-.914-.336-.082-.796-.05-1.359.073-.967.211-2.789 1.301-4.333 3.478-1.545 2.178-3.182 6.114-3.657 7.388C9.618 14.805 8.457 7.587 8.6 5.88c.143-1.707.402-1.553.488-2.436.12-1.233-.142-2.06-1.189-2.217-1.046-.157-1.995.489-2.602 1.373-.608.884-2.13 3.835-3.463 10.384C.501 19.534.005 24.632 0 26.016c-.005 1.384.404 2.177 1.51 2.245 1.172.073 2.05-.585 2.045-1.74-.016-4.193.063-5.452.467-9.386.405-3.933.992-6.356 1.848-9.127.2 6.026 1.498 11.594 2.751 15.186.34.976.99 1.486 1.887 1.114z" fill="#FF3859" fill-rule="evenodd"/></svg>