<svg width="90" height="90" viewBox="0 0 90 90" xmlns="http://www.w3.org/2000/svg" xmlns:xlink="http://www.w3.org/1999/xlink"><defs><path id="a" d="M0 89.16h89.124V.05H0v89.11z"/><path id="c" d="M87.463 85.84V.05H0v85.79z"/></defs><g fill="none" fill-rule="evenodd"><g transform="translate(0 .115)"><mask id="b" fill="#fff"><use xlink:href="#a"/></mask><path d="M89.124 44.636c-.017 24.607-19.982 44.54-44.593 44.524C19.92 89.143-.016 69.18 0 44.574.017 19.968 19.982.034 44.593.05c24.61.018 44.548 19.98 44.53 44.586" fill="#FA507B" mask="url(#b)"/></g><g transform="translate(1.66 1.776)"><mask id="d" fill="#fff"><use xlink:href="#c"/></mask><path d="M42.9.05c-11.448 0-22.212 4.454-30.314 12.543C4.478 20.69.008 31.458 0 42.915c-.008 11.458 4.447 22.232 12.544 30.34 8.098 8.107 18.868 12.576 30.328 12.584h.03c11.448 0 22.212-4.454 30.314-12.543 8.11-8.097 12.58-18.865 12.587-30.323l1.66.002-1.66-.002c.007-11.457-4.448-22.232-12.545-30.34C65.16 4.53 54.39.06 42.93.052h-.03z" fill="#FA507B" mask="url(#d)"/></g><path d="M36.222 63.214l.023-32.75c.003-5.148 4.218-9.355 9.365-9.352 5.147.004 9.356 4.217 9.353 9.364l-.023 32.75c-.004 5.147-4.218 9.355-9.365 9.352-5.148-.004-9.356-4.218-9.353-9.364" fill="#FFF"/><path d="M45.604 22.69c-4.29 0-7.78 3.486-7.782 7.774l-.022 32.75c-.003 4.29 3.485 7.783 7.776 7.786h.005c4.29 0 7.78-3.486 7.782-7.774l.023-32.75c0-2.07-.81-4.02-2.283-5.496-1.474-1.476-3.425-2.29-5.493-2.29h-.006zm-.023 51.465h-.007c-2.91-.002-5.653-1.144-7.722-3.216-2.07-2.073-3.207-4.817-3.205-7.727h1.577-1.577l.022-32.75c.004-6.028 4.91-10.928 10.937-10.928h.007c6.032.004 10.934 4.913 10.93 10.942l-.022 32.75c-.002 2.91-1.145 5.654-3.217 7.723-2.07 2.067-4.81 3.205-7.72 3.205z" fill="#FA507B"/><path d="M28.603 20.848l32.756.022c5.146.004 9.355 4.218 9.35 9.364-.002 5.147-4.217 9.355-9.364 9.35l-32.756-.02c-5.148-.005-9.356-4.22-9.353-9.365.004-5.148 4.218-9.356 9.366-9.352" fill="#FFF"/><path d="M28.596 22.425c-4.288 0-7.778 3.486-7.78 7.775-.002 2.068.808 4.02 2.282 5.495 1.474 1.475 3.425 2.29 5.493 2.29l32.757.023h.005c4.29 0 7.78-3.487 7.782-7.775 0-2.068-.81-4.02-2.284-5.495-1.474-1.475-3.424-2.29-5.492-2.29L28.6 22.425h-.004zm32.756 18.737h-.007L28.59 41.14c-2.912-.002-5.655-1.144-7.724-3.216-2.07-2.072-3.208-4.816-3.206-7.726.004-6.027 4.91-10.928 10.936-10.928h.008l32.756.023c2.91.002 5.653 1.144 7.723 3.216 2.07 2.07 3.208 4.815 3.206 7.725-.005 6.027-4.91 10.927-10.938 10.927z" fill="#FA507B"/><path d="M35.394 41.145c-.8 0-1.485-.607-1.567-1.42-.088-.867.544-1.64 1.41-1.727.772-.078 1.514-.254 2.208-.525 3.39-1.323 4.996-4.707 6.697-8.29 1.862-3.923 3.787-7.98 8.247-9.417.89-.287 1.84-.447 2.824-.476.876-.027 1.598.658 1.624 1.53.026.87-.66 1.597-1.53 1.623-.687.02-1.344.13-1.95.326-3.164 1.018-4.648 4.144-6.366 7.765-1.8 3.796-3.843 8.098-8.4 9.877-.96.374-1.982.618-3.038.725-.053.005-.107.008-.16.008M64.123 30.22c0 1.758-1.43 3.183-3.188 3.182-1.76 0-3.185-1.43-3.184-3.188.002-1.76 1.43-3.184 3.19-3.183 1.76.002 3.184 1.43 3.183 3.19" fill="#FA507B"/></g></svg>