<svg width="198" height="115" xmlns="http://www.w3.org/2000/svg" xmlns:xlink="http://www.w3.org/1999/xlink"><defs><linearGradient x1="33.335%" y1="-30.114%" x2="33.335%" y2="112.396%" id="c"><stop stop-color="#FFD1BC" offset="0%"/><stop stop-color="#FF4D7B" offset="100%"/></linearGradient><path id="a" d="M0 0h256v144H0z"/></defs><g transform="translate(-36 -22)" fill="none" fill-rule="evenodd"><mask id="b" fill="#fff"><use xlink:href="#a"/></mask><g mask="url(#b)"><path d="M57.889 98.362c-8.408 4.587-12.531 14.7-9.308 24.06 3.596 10.443 14.977 15.994 25.421 12.398 10.444-3.596 15.995-14.978 12.4-25.422C82.804 98.954 71.423 93.403 60.98 97" stroke="#B8ADCC" stroke-width="2" stroke-linejoin="round" stroke-dasharray="7"/><path d="M73.396 125.74l-.714-2.075c2.572-1.687 3.668-4.443 2.751-7.106-1.208-3.51-4.23-3.787-7.129-3.791-1.819-.004-3.3-.096-3.696-1.249-.335-.973.356-2.1 1.982-2.659 1.65-.568 3.675-.463 4.964-.019l-1.384-4.021c-1.09-.197-2.561-.178-3.935.123l-.652-1.895-3.302 1.136.723 2.1c-2.403 1.602-3.417 4.185-2.561 6.67 1.164 3.38 4.084 3.693 6.958 3.706 1.955-.014 3.419.112 3.85 1.367.433 1.255-.513 2.469-2.29 3.08-1.804.622-4.186.468-5.795-.41l1.481 4.302c1.22.325 2.981.407 4.795-.017l.653 1.895 3.301-1.137z" fill="#B8ADCC" fill-rule="nonzero"/></g><g mask="url(#b)"><path d="M51.602 23.29c-5.949-.666-11.685 3.034-13.39 8.98-1.903 6.637 1.934 13.559 8.57 15.462 6.636 1.903 13.558-1.934 15.461-8.57 1.903-6.637-1.934-13.559-8.57-15.462" stroke="#B8ADCC" stroke-width="2" stroke-linejoin="round" stroke-dasharray="5"/><path d="M50.08 42.662l.379-1.318c1.894.05 3.425-.973 3.91-2.666.64-2.23-.782-3.447-2.24-4.481-.913-.65-1.626-1.224-1.416-1.956.178-.619.926-.95 1.943-.659 1.033.297 2.014 1.071 2.505 1.758l.733-2.555c-.479-.49-1.226-1.003-2.024-1.338l.345-1.204-2.065-.592-.383 1.334c-1.778-.034-3.207.93-3.66 2.508-.615 2.149.743 3.348 2.184 4.378.99.689 1.681 1.275 1.452 2.072-.228.797-1.135 1.083-2.248.764-1.128-.323-2.272-1.25-2.77-2.273l-.784 2.734c.499.6 1.356 1.269 2.42 1.697l-.346 1.205 2.066.592z" fill="#B8ADCC" fill-rule="nonzero"/></g><g mask="url(#b)"><path d="M221.071 30.873c-7.68-2.702-16.412.445-20.492 7.804-4.551 8.212-1.584 18.558 6.627 23.11 8.212 4.552 18.559 1.585 23.11-6.627 4.552-8.211 1.585-18.558-6.626-23.11" stroke="#B8ADCC" stroke-width="2" stroke-linejoin="round" stroke-dasharray="6"/><path d="M211.438 55.943l.887-1.599c2.512.67 4.852-.175 5.99-2.228 1.5-2.705-.045-4.748-1.69-6.563-1.03-1.14-1.814-2.116-1.322-3.005.416-.75 1.51-.943 2.783-.238 1.292.716 2.377 2.04 2.833 3.093l1.718-3.1c-.497-.791-1.345-1.7-2.313-2.391l.81-1.461-2.584-1.432-.897 1.618c-2.363-.612-4.548.19-5.61 2.104-1.444 2.607.02 4.606 1.645 6.41 1.12 1.214 1.873 2.199 1.336 3.166-.536.968-1.83 1.051-3.22.28-1.412-.783-2.67-2.357-3.037-3.851l-1.839 3.316c.491.944 1.44 2.09 2.736 2.988l-.81 1.46 2.584 1.433z" fill="#B8ADCC" fill-rule="nonzero"/></g><g mask="url(#b)"><path d="M126.732 39.423c-11.72 1.997-20.644 12.255-20.644 24.61 0 13.786 11.113 24.962 24.82 24.962 13.709 0 24.822-11.176 24.822-24.962S144.617 39.07 130.909 39.07" stroke="#B8ADCC" stroke-width="2" stroke-linejoin="round" stroke-dasharray="6"/><path d="M133.333 78.432v-2.73c3.741-.944 6.168-3.741 6.168-7.246 0-4.618-3.472-6.168-6.91-7.348-2.157-.741-3.875-1.449-3.875-2.966 0-1.28 1.28-2.325 3.437-2.325 2.191 0 4.55.944 5.898 1.988v-5.291c-1.213-.674-2.966-1.247-4.718-1.45v-2.493h-4.382v2.763c-3.505.91-5.763 3.54-5.763 6.808 0 4.45 3.337 6 6.74 7.18 2.326.774 4.012 1.516 4.012 3.167 0 1.652-1.618 2.697-3.977 2.697-2.393 0-5.157-1.146-6.707-2.831v5.662c1.314.876 3.37 1.685 5.695 1.92v2.495h4.382z" fill="#B8ADCC" fill-rule="nonzero"/><g transform="rotate(-39 124.665 -87.47)"><path fill="#FF4C7B" d="M30.206 65.147h8.167V81.25h-8.167z"/><path d="M27.484 79.46h13.612v26.294a6.806 6.806 0 11-13.612 0V79.46z" fill="url(#c)"/><ellipse stroke="#231653" stroke-width="4.082" cx="34.169" cy="34.031" rx="34.03" ry="33.547"/></g></g></g></svg>