<svg width="128" height="129" fill="none" xmlns="http://www.w3.org/2000/svg"><ellipse cx="64" cy="64.035" rx="64" ry="64.035" fill="#FFE1D3"/><mask id="a" maskUnits="userSpaceOnUse" x="0" y="0" width="128" height="129"><ellipse cx="64" cy="64.035" rx="64" ry="64.035" fill="#fff"/></mask><g mask="url(#a)"><path fill-rule="evenodd" clip-rule="evenodd" d="M104.13 193.609c-1.049-1.25-39.885-24.884-41.86-24.917-1.977-.033-5.085-3.248-6.34-4.744-1.256-1.496-1.238-7.631 3.136-14.287 2.879-4.382 12.732-28 15.65-28.309 3.047-.323 9.904 4.844 8.185 10.302-2.314 7.348-11.64 25.493-9.567 26.323 13.173 5.278 29.681 27.751 31.014 29.34 1.334 1.589.831 7.543-.218 6.292z" fill="url(#paint0_linear)"/><path fill-rule="evenodd" clip-rule="evenodd" d="M48.097 25.071c-.316 2.972 6.893 15.816 8.983 19.576 2.09 3.76 4.691 8.47 6.146 11.097 1.455 2.627 4.45 16.08 5.288 21.128.837 5.047-1.473 8.77-2.371 9.936-.899 1.166-8.132-.883-8.132-.883-7.22-9.032-2.866-18.937-7.034-29.874-4.168-10.937-7.302-29.355-6.165-30.412 0 0 3.408-1.723 3.285-.568z" fill="url(#paint1_linear)"/><path fill-rule="evenodd" clip-rule="evenodd" d="M48.222 26.157s.1-6.586-.286-7c-.386-.414-3.298-.404-3.773-.913-.474-.51-1.056.986-1.563 1.46-.508.473-.337 3.2.049 3.613.386.415 2.105 2.797 2.105 2.797l3.468.043z" fill="#FF97BC"/><path fill-rule="evenodd" clip-rule="evenodd" d="M61.903 212.035c.487-1.592-4.35-41.754-5.925-45.335-1.574-3.58-1.892-7.45-1.69-9.636.2-2.185-.106-29.228.119-37.84.225-8.612-.53-13.164.494-14.138 2.975-2.832 21.449-1.18 21.449-1.18l-5.059-7.153s13.962 16.758 11.772 23.917c-.897 2.932 2.003 2.522-2.85 10.815-5.222 8.957-9.064 20.02-9.182 23.393-.118 3.373 3.266 17.967 2.231 26.872-1.035 8.905-5.442 27.267-6.061 29.291-.62 2.024-5.785 2.587-5.298.994z" fill="#FF0050"/><path fill-rule="evenodd" clip-rule="evenodd" d="M59.776 61.537c.184-1.751-2.056-4.858-2.056-4.858l9.267-4.93 1.815 9.189c.806 1.716 5.169 11.124 5.063 13.477-.061 1.35-2.273 1.356-4.047 1.36-1.253.002-2.288.005-2.192.48.74 3.664-12.93 13.78-12.93 13.78s-3.663-10.08.389-17.076c.168-.291.343-.587.523-.892.97-1.642 2.082-3.525 3.103-6.15-.302-.02-.47-.039-.47-.039s1.35-2.59 1.535-4.341z" fill="url(#paint2_linear)"/><path fill-rule="evenodd" clip-rule="evenodd" d="M52.681 48.836s-.41 1.304-.582 1.77c-.283.774-.56 1.247-.468 1.505.218.618 1.692.355 1.692.355l-.642-3.63z" fill="#F3527B"/><path fill-rule="evenodd" clip-rule="evenodd" d="M52.546 44.477s-.087 5.293.744 8.496c.83 3.202 3.123 7.052 3.123 7.052s7.045-1.432 9.287-4.054c2.242-2.622 2.385-9.78 2.385-9.78s-.801-6.813-5.674-7.619c-4.873-.805-9.865 5.905-9.865 5.905z" fill="#FF80A2"/><path fill-rule="evenodd" clip-rule="evenodd" d="M50.403 37.308c-1.943 3.234-1.516 4.828.762 7.696 1.556 1.959 5.51 1.199 8.743 1.252 6.464.105 6.305 1.79 7.371 3.563 1.067 1.773-1.054 2.525.134 5.602.565 1.462-.572 7.264 5.43 5.657 6.039-1.618 2.543-3.628 6.86-6.75 4.317-3.123 2.69-10.143.867-11.51-3.455-2.592-.075-5.42-4.187-8.55-4.112-3.128-5.249-1.286-8.542-3.205-3.294-1.92-5.02-.922-9.509 1.696-4.488 2.619-5.987 1.314-7.93 4.549z" fill="url(#paint3_linear)"/><ellipse cx="67.644" cy="49.045" rx="1.283" ry="1.629" transform="rotate(-5 67.644 49.045)" fill="#FF80A2"/><path fill-rule="evenodd" clip-rule="evenodd" d="M49.542 90.492c-.335 3.187-2.654 24.106-.492 27.991 2.162 3.884 3.426-1.705 11.768 7.958 8.34 9.662 22.012 5.694 24.13 3.079 2.119-2.616-2.29-20.511-4.081-24.93-1.792-4.42-3.879-15.878-4.163-20.847-.284-4.968-6.143-21.92-7.402-21.942-1.26-.022-5.115 4.98-11.303 3.412-2.68 1.735-4.246 4.968-6.047 10.822-1.8 5.854-2.246 12.903-2.41 14.457z" fill="url(#paint4_linear)"/><path fill-rule="evenodd" clip-rule="evenodd" d="M78.704 21.435c-1.673 2.475-1.338 17.2-1.258 21.5.08 4.301.165 9.682.216 12.685.052 3.002-3.62 16.288-5.25 21.137-1.63 4.85-5.417 7.052-6.758 7.66-1.34.608-6.765-4.597-6.765-4.597-2.134-11.364 6.36-18.066 7.814-29.68 1.455-11.613 7.335-29.347 8.835-29.746 0 0 3.818.078 3.166 1.04z" fill="#FF80A2"/><path fill-rule="evenodd" clip-rule="evenodd" d="M78.305 22.45s3.18-5.767 3.034-6.314c-.146-.547-2.723-1.905-2.903-2.577-.18-.673-1.395.374-2.065.554-.67.18-1.8 2.668-1.653 3.214.146.547.545 3.458.545 3.458l3.042 1.666z" fill="#FF80A2"/><path fill-rule="evenodd" clip-rule="evenodd" d="M58.08 74.563s-2.667 8.274.119 12.096c2.786 3.822 5.234 3.56 8.106 2.966 2.871-.593 4.595-3.156 6.33-5.99 1.735-2.833 2.488-10.873.708-10.025-1.78.848-5.563 2.47-9.031 2.097-3.468-.373-6.231-1.144-6.231-1.144z" fill="url(#paint5_linear)"/></g><defs><linearGradient id="paint0_linear" x1="112.673" y1="150.414" x2="67.185" y2="158.599" gradientUnits="userSpaceOnUse"><stop stop-color="#FE0150"/><stop offset="1" stop-color="#E7045C"/></linearGradient><linearGradient id="paint1_linear" x1="33.287" y1="35.171" x2="57.849" y2="77.169" gradientUnits="userSpaceOnUse"><stop stop-color="#FF98BD"/><stop offset="1" stop-color="#FF5F88"/><stop offset="1" stop-color="#FF5F88"/></linearGradient><linearGradient id="paint2_linear" x1="67.076" y1="63.563" x2="60.141" y2="59.731" gradientUnits="userSpaceOnUse"><stop stop-color="#FF98BD"/><stop offset="1" stop-color="#FF5F88"/><stop offset="1" stop-color="#FF5F88"/></linearGradient><linearGradient id="paint3_linear" x1="83.532" y1="60.278" x2="80.764" y2="28.642" gradientUnits="userSpaceOnUse"><stop stop-color="#231653"/><stop offset="1" stop-color="#4411CD"/></linearGradient><linearGradient id="paint4_linear" x1="84.835" y1="133.77" x2="92.147" y2="64.202" gradientUnits="userSpaceOnUse"><stop stop-color="#231653"/><stop offset="1" stop-color="#4411CD"/></linearGradient><linearGradient id="paint5_linear" x1="45.681" y1="105.516" x2="49.261" y2="74.182" gradientUnits="userSpaceOnUse"><stop stop-color="#231653"/><stop offset="1" stop-color="#4411CD"/></linearGradient></defs></svg>