<svg width="128" height="128" fill="none" xmlns="http://www.w3.org/2000/svg"><mask id="a" maskUnits="userSpaceOnUse" x="0" y="0" width="128" height="128"><circle cx="64" cy="64" r="64" fill="#FFF1EA"/></mask><g mask="url(#a)"><path d="M137 68c0 38.66-31.34 70-70 70S-3 106.66-3 68 28.34-2 67-2s70 31.34 70 70z" fill="#FFE1D3"/><g filter="url(#filter0_d)"><rect x="28.679" y="25.591" width="58.915" height="65.599" rx="10.483" fill="url(#paint0_linear)"/></g><path fill-rule="evenodd" clip-rule="evenodd" d="M107.849 95.875c-.116-.395-6.753-9.822-7.213-10.032-.459-.21-1.031-.691-1.17-1.165-.138-.473.059-.54-.77-2.03-.83-1.489-2.02-9.05-2.126-9.414-.107-.364.542-3.734.542-3.734l1.88-1.913s1.125 1.656 1.644 3.434c.52 1.778 2.822.073 2.014 2.213.338 2.505-.566 7.638-.309 8.578.437 1.6 2.401 2.786 3.072 4.239.671 1.452 2.996 7.895 3.143 8.398.146.502-.592 1.822-.707 1.426z" fill="#E7045C"/><mask id="b" maskUnits="userSpaceOnUse" x="96" y="67" width="13" height="29"><path fill-rule="evenodd" clip-rule="evenodd" d="M107.849 95.875c-.116-.395-6.753-9.822-7.213-10.032-.459-.21-1.031-.691-1.17-1.165-.138-.473.059-.54-.77-2.03-.83-1.489-2.02-9.05-2.126-9.414-.107-.364.542-3.734.542-3.734l1.88-1.913s1.125 1.656 1.644 3.434c.52 1.778 2.822.073 2.014 2.213.338 2.505-.566 7.638-.309 8.578.437 1.6 2.401 2.786 3.072 4.239.671 1.452 2.996 7.895 3.143 8.398.146.502-.592 1.822-.707 1.426z" fill="#fff"/></mask><g mask="url(#b)"><path fill-rule="evenodd" clip-rule="evenodd" d="M106.814 95.232s1.458-1.165 1.458-2.027c0-.862.944 2.027.944 2.027l-.944 1.159-1.458-1.16z" fill="#FF80A2"/></g><path fill-rule="evenodd" clip-rule="evenodd" d="M97.932 96.791c.109-.397-1.983-13.563-1.94-15.266.042-1.702-.639-5.334-.658-7.462-.019-2.129-.249-3.246 0-3.496.724-.725 5.383-.476 5.383-.476l.777-1.407s1.729 2.763 1.242 4.55c-.2.732.342 1.544-.805 3.634-1.235 2.257-2.104 5.022-2.104 5.855 0 .834 1.303 4.746.825 6.73-.478 1.986-1.157 6.667-1.295 7.172-.138.505-1.533.564-1.425.166z" fill="#FF0050"/><mask id="c" maskUnits="userSpaceOnUse" x="95" y="68" width="8" height="30"><path fill-rule="evenodd" clip-rule="evenodd" d="M97.932 96.791c.109-.397-1.983-13.563-1.94-15.266.042-1.702-.639-5.334-.658-7.462-.019-2.129-.249-3.246 0-3.496.724-.725 5.383-.476 5.383-.476l.777-1.407s1.729 2.763 1.242 4.55c-.2.732.342 1.544-.805 3.634-1.235 2.257-2.104 5.022-2.104 5.855 0 .834 1.303 4.746.825 6.73-.478 1.986-1.157 6.667-1.295 7.172-.138.505-1.533.564-1.425.166z" fill="#fff"/></mask><g mask="url(#c)"><path fill-rule="evenodd" clip-rule="evenodd" d="M96.889 95.743s1.454.372 2.586 0c1.131-.372 0 1.655 0 1.655h-2.586v-1.655z" fill="#FF80A2"/></g><path fill-rule="evenodd" clip-rule="evenodd" d="M96.563 58.59s.578.76.54 1.193c-.038.433-.365 1.079-.365 1.079s.513.049 1.174-.044c.661-.093 1.483-1.105 1.483-1.105l-.525-2.377-2.307 1.255z" fill="url(#paint1_linear)"/><path fill-rule="evenodd" clip-rule="evenodd" d="M95.557 56.285s-.158.3-.22.406c-.105.176-.194.279-.182.345.027.16.404.16.404.16l-.002-.91z" fill="#FF4D7B"/><path fill-rule="evenodd" clip-rule="evenodd" d="M95.713 55.219s-.251 1.284-.184 2.099c.067.815.469 1.85.469 1.85s1.807-.043 2.476-.584c.67-.54 1.015-2.276 1.015-2.276s.096-1.692-1.076-2.099c-1.173-.407-2.7 1.01-2.7 1.01z" fill="#FF80A2"/><path fill-rule="evenodd" clip-rule="evenodd" d="M95.492 53.381c-.357.628-.585 1.11-.145 1.906.301.544 1.314.53 2.113.683 1.597.305 1.484.709 1.672 1.186.187.477-.332.603-.33 1.413 0 .313 1.087 3.951 2.625 4.236.996.184 2.689-.075 3.701-.934 1.012-.858 1.132-1.709 1.131-2.756-.004-1.86-1.041-3.008-2.867-3.815-1.827-.808-1.26-1.155-3.087-2.538-1.827-1.384-4.456-.008-4.813.62z" fill="url(#paint2_linear)"/><ellipse cx="99.158" cy="56.828" rx=".37" ry=".54" transform="rotate(5 99.158 56.828)" fill="#FF80A2"/><path fill-rule="evenodd" clip-rule="evenodd" d="M96.024 63.623s-.7-.406.286-2.15c.985-1.745 2.642-1.88 2.642-1.88s1.302 1.79 1.506 2.693c.203.902-4.434 1.337-4.434 1.337z" fill="#FF6C93"/><path fill-rule="evenodd" clip-rule="evenodd" d="M95.094 66.375c-.07.789-.847 6.296-.417 7.52.43 1.223.3-.53 3.624 2.45 3.324 2.98 5.152.901 5.458.136.306-.766-.674-5.06-1.146-6.144-.472-1.085-1.218-4.314-1.146-5.135.071-.82-.428-4.706-2.106-4.853-1.677-.147-2.75 1.457-2.75 1.457s-.655.556-1.564.477c-.415.954.115 3.303.047 4.092z" fill="url(#paint3_linear)"/><path fill-rule="evenodd" clip-rule="evenodd" d="M84.425 60.919c.536.53 4.246 1.133 5.328 1.314 1.082.18 1.794.42 2.182.454.389.034 5.014-1.128 6.294-1.432 1.28-.305.344 1.168-.265 2.128l1.58 1.339c-2.848 1.326-5.688 1.417-8.526.515-2.84-.902-6.99-3.189-7.014-3.58 0 0 .212-.945.42-.738z" fill="#FF80A2"/><path fill-rule="evenodd" clip-rule="evenodd" d="M84.11 61.765s-1.615-.453-1.687-.577c-.072-.123.153-.828.065-.98-.088-.152-.952-.812-.814-.892.138-.08 1.135.707 1.29.619.154-.089.806.15.877.273.072.124.522.713.522.713l-.254.844zm14.243-.852s-1.91 1.463-.582 3.681c1.328 2.218 2.212.647 2.704-.167.492-.814.165-2.802-.526-3.434-.692-.633-1.596-.08-1.596-.08zm-3.328 37.142c.778-.188.892-.372 1.813-.64.92-.27 1.17-.875 1.482-1.124.313-.248 1.073-.231 1.073.136 0 .368.575 1.327-.09 1.857-.667.53-1.529.166-2.19.234-.66.067-1.172.127-1.816.127-.644 0-1.05-.403-.272-.59zm12.784-2.253s.35.902.767 1.569c.418.666 1.145 1.053 1.289 1.397.145.344.566.202.566-.162 0-.365-.566-1.683-.566-2.147 0-.464.177-1.857-.243-2.073-.419-.215-1.145 0-1.145 0l-.668 1.416z" fill="#FF80A2"/><path fill-rule="evenodd" clip-rule="evenodd" d="M66.874 62.26h-14.29a2.944 2.944 0 01-1.503-.411v.76c0 .839.672 1.526 1.503 1.526h13.592c1.599 0 2.905 1.324 2.905 2.946s-1.306 2.946-2.905 2.946c-1.6 0-2.905-1.319-2.905-2.946 0-.54.144-1.049.4-1.487H57.2c.255.433.399.946.399 1.487 0 1.622-1.306 2.946-2.905 2.946-1.599 0-2.905-1.319-2.905-2.946 0-.552.155-1.07.416-1.514-1.445-.19-2.564-1.443-2.564-2.957V47.836l-3.486-1.493a.733.733 0 01-.383-.957.715.715 0 01.943-.389l3.928 1.676a.6.6 0 00.021.01c.018.009.038.018.064.034a.54.54 0 01.082.06c.008.006.026.02.068.058.01.011.021.022.069.081a.18.18 0 00.01.019c.008.01.02.03.043.068.003.002.004.006.007.015l.03.072a.896.896 0 01.03.114l.013.075a.292.292 0 01.006.075v2.563l18.132 2.541c.016 0 .027 0 .107.022l.01.004a.736.736 0 01.086.039c.01.005.021.01.064.038l.027.018.058.041.07.076c.001.004.004.007.01.013l.053.073a.13.13 0 00.007.012c.006.01.017.028.041.075a.409.409 0 00.008.02l.03.083c.003.009.004.016.007.035l.014.073c.005.01.005.021.005.097v6.099c0 1.643-1.322 2.984-2.942 2.984zM54.7 68.562c.805 0 1.466-.665 1.466-1.486 0-.822-.66-1.487-1.466-1.487-.805 0-1.465.67-1.465 1.487 0 .816.66 1.486 1.465 1.486zm12.947-1.486c0 .821-.66 1.486-1.466 1.486-.805 0-1.465-.67-1.465-1.486 0-.817.66-1.487 1.465-1.487s1.466.665 1.466 1.487zM52.584 60.8h14.29c.826 0 1.503-.681 1.503-1.53v-5.466l-17.296-2.416v7.888c0 .838.672 1.524 1.503 1.524z" fill="#7286E0"/><path fill-rule="evenodd" clip-rule="evenodd" d="M50.402 58.887l.485-8.385 18.26 2.35v7.453l-2.26.981h-15.35l-1.135-2.4zm8.261-4.636c-.861.015-1.547.777-1.53 1.702v.067c.061 1.093 1.03 2.204 2.91 3.333 1.837-1.328 2.757-2.472 2.76-3.433v-.067c-.016-.925-.728-1.662-1.59-1.647a1.53 1.53 0 00-1.262.731 1.53 1.53 0 00-1.288-.686z" fill="#7286E0"/><path d="M47.413 38.193h-9.97v8.64m31.882-8.785h9.97v8.64M47.413 78.86h-9.97v-8.64m31.882 8.786h9.97v-8.64" stroke="#1832A5" stroke-width="4.68" stroke-linecap="round" stroke-linejoin="round"/></g><defs><linearGradient id="paint0_linear" x1="28.679" y1="25.591" x2="28.679" y2="91.19" gradientUnits="userSpaceOnUse"><stop stop-color="#FFF2EC"/><stop offset=".549" stop-color="#FFE2D5"/><stop offset="1" stop-color="#FED1D4"/></linearGradient><linearGradient id="paint1_linear" x1="99.187" y1="60.123" x2="98.288" y2="58.891" gradientUnits="userSpaceOnUse"><stop stop-color="#FF80A2"/><stop offset="1" stop-color="#FF5F88"/></linearGradient><linearGradient id="paint2_linear" x1="105.812" y1="62.941" x2="106.692" y2="52.873" gradientUnits="userSpaceOnUse"><stop stop-color="#FF8266"/><stop offset="1" stop-color="#FFD1BC"/></linearGradient><linearGradient id="paint3_linear" x1="103.645" y1="78.099" x2="105.154" y2="60.856" gradientUnits="userSpaceOnUse"><stop stop-color="#231653"/><stop offset="1" stop-color="#4411CD"/></linearGradient><filter id="filter0_d" x="21.679" y="22.591" width="72.915" height="79.599" filterUnits="userSpaceOnUse" color-interpolation-filters="sRGB"><feFlood flood-opacity="0" result="BackgroundImageFix"/><feColorMatrix in="SourceAlpha" values="0 0 0 0 0 0 0 0 0 0 0 0 0 0 0 0 0 0 127 0"/><feMorphology radius="5" in="SourceAlpha" result="effect1_dropShadow"/><feOffset dy="4"/><feGaussianBlur stdDeviation="6"/><feColorMatrix values="0 0 0 0 0.488989 0 0 0 0 0.0291362 0 0 0 0 0.263233 0 0 0 0.525732 0"/><feBlend in2="BackgroundImageFix" result="effect1_dropShadow"/><feBlend in="SourceGraphic" in2="effect1_dropShadow" result="shape"/></filter></defs></svg>