<svg width="128" height="128" fill="none" xmlns="http://www.w3.org/2000/svg"><mask id="a" maskUnits="userSpaceOnUse" x="0" y="0" width="128" height="128"><circle cx="64" cy="64" r="64" fill="#C4C4C4"/></mask><g mask="url(#a)"><ellipse cx="32.71" cy="63.086" rx="139.162" ry="79.298" fill="url(#paint0_linear)"/><path opacity=".578" stroke="#FF8266" stroke-width="2.059" d="M-30.252 124.749H7.381v6.079h-37.633z"/><path opacity=".578" fill="#FF8266" stroke="#FF8266" stroke-width="2.059" d="M-26.085 120.131h37.633v2.56h-37.633z"/><path opacity=".703" fill="#FF8266" stroke="#FF8266" stroke-width="1.32" d="M-30.841 112.722H7.532v1.32h-38.373z"/><path opacity=".578" stroke="#FF8266" stroke-width="2.059" d="M-32.445 115.732H5.188v2.56h-37.633z"/><g opacity=".763"><path clip-rule="evenodd" d="M133.514 65.067c4.929-2.62 4.748-15.57 12.887-13.138 8.139 2.43 9.558 12.811 14.413 15.833 4.856 3.022.31 11.975 4.204 17.207 3.894 5.233-3.191 14.969-9.39 14.88-6.199-.089-9.917 2.014-13.254 2.655-3.337.641-15.846-3.952-17.084-8.64-1.238-4.687.87-9.376 4.145-15.457 3.276-6.08-.85-10.72 4.079-13.34zm-5.965 43.367h33.772l-6.192 23.534h-21.278l-6.302-23.534z" stroke="#FF9D85" stroke-width="2.059"/><path fill="#FFA790" d="M126.453 107.884h36.842v4.399h-36.842z"/></g><path fill-rule="evenodd" clip-rule="evenodd" d="M23.974 130.197s2.308-3.06 8.066-8.958c5.759-5.898 6.95-13.465 6.95-13.465s13.407 19.678 24.063 19.678c10.655 0 25.3-11.032 25.3-11.032s-43.74-23.733-45.85-25.59c-2.11-1.855-7.022-.887-7.923-.412-.9.475-18.699 41.872-21.427 43.569-2.728 1.697 10.821-3.79 10.821-3.79z" fill="url(#paint1_linear)"/><path fill-rule="evenodd" clip-rule="evenodd" d="M67.082 114.372s2.87-6.355 5.392-6.983c2.523-.629 9.739 5.931 9.739 5.931l-15.131 1.052z" fill="#F3F2FA"/><path fill-rule="evenodd" clip-rule="evenodd" d="M-44.053 124.59c3.683 1.717 6.982 1.629 11.495 3.476 4.513 1.847 9.226 3.449 11.27 3.449 2.045 0 39.233-9.902 40.855-11.385 1.623-1.482 4.686-3.091 7.133-3.091 2.446 0 2.507.807 10.733-.662 8.225-1.468 41.34-3.324 43.22-3.324 1.88 0 28.06 12.532 28.06 12.532l6.614 9.082s-8.688 5.271-17.879 5.271c-9.19 0-53.6-7.951-60.015-7.951-6.416 0-17.441 4.33-25.831 4.33H-18.69c-2.598 0-3.933 4.229-8.291 4.229-4.358 0-5.255-5.387-8.085-7.209-2.83-1.822-4.997-2.508-7.541-4.549-2.545-2.041-5.129-5.916-1.446-4.198z" fill="url(#paint2_linear)"/><path fill-rule="evenodd" clip-rule="evenodd" d="M104.581 97.156s14.335 20.63 17.929 25.843c3.594 5.213 4.606 7.452 8.58 11.451 3.973 3.999 5.738.076 8.947 1.367 3.209 1.291 10.618 1.291 8.423 0-3.903-2.296-12.815-3.481-15.792-6.274-2.978-2.794-23.503-42.444-23.503-42.444l-4.584 10.057z" fill="#FF5F88"/><path fill-rule="evenodd" clip-rule="evenodd" d="M80.63 112.833l-8.724.453s12.77 27.04 21.514 27.04c8.743 0 20.591-1.228 20.591-5.9 0-4.672-33.381-21.593-33.381-21.593z" fill="url(#paint3_linear)"/><path fill-rule="evenodd" clip-rule="evenodd" d="M37.266 85.333c0-.655 2.702-3.775 3.05-6.2.348-2.427 4.157-5.39 5.928-5.39s18.134 14.85 19.414 16.005c1.28 1.156 12.532-11.046 14.227-11.046 1.695 0 3.372 5.192 3.372 5.192l5.316 2.109S75.412 100.99 68.293 99.5c-7.118-1.489-18.604-20.93-19.935-20.93-1.332 0-.076 2.145-3.312 2.145-3.237 0-1.656-.308-4.382 2.42-2.725 2.728-3.398 2.852-3.398 2.197z" fill="#FF80A2"/><path fill-rule="evenodd" clip-rule="evenodd" d="M106.795 94.138s4.728-2.322 5.43-4.865c.703-2.543-14.442-23.289-14.442-23.289l9.012 28.154z" fill="url(#paint4_linear)"/><path fill-rule="evenodd" clip-rule="evenodd" d="M84 90.77s-2.597 21.968-3.869 21.968c-1.272 0 8.654 9.757 15.55 13.997 6.897 4.239 12.069 4.239 16.081 8.247 4.011 4.008 7.512 2.226 7.512 1.113s-5.042-14.725-7.018-19.9c-1.975-5.176-5.81-23.233-5.81-27.336 0-4.104-7.76-29.232-10.764-27.152-3.005 2.08-9.812 3.84-9.812 3.84S84 70.594 84 78.35v12.42z" fill="url(#paint5_linear)"/><path fill-rule="evenodd" clip-rule="evenodd" d="M79.796 81.474S90.23 69.492 92.504 69.651c2.275.16 1.615-.92 3.648 2.711 2.033 3.631 2.105 7.015 1.246 12.198-.86 5.183-1.653 9.04-3.61 12.493-1.956 3.452-2.371 7.167-5.44 3.75-3.068-3.417-5.554-10.666-6.706-14.558-1.152-3.892-1.846-4.77-1.846-4.77z" fill="url(#paint6_linear)"/><path fill-rule="evenodd" clip-rule="evenodd" d="M74.168 34.992s-.105 4.405-.393 5.336c-.41 1.332-1.138 2.812-1.012 4.007.319 3.043 5.814 7.218 5.814 7.218l1.561-11.491-5.97-5.07z" fill="url(#paint7_linear)"/><path fill-rule="evenodd" clip-rule="evenodd" d="M77.122 47.911s-.42 1.552-.62 2.129c-.332.96-.66 1.548-.543 1.863.281.757 2.084.4 2.084.4l-.92-4.392z" fill="#FF5F88"/><path fill-rule="evenodd" clip-rule="evenodd" d="M85.431 56.928s.844 4.265.844 5.489c0 1.224-.422 3.159-.422 3.159s2.503.748 5.31 0c2.805-.748 5.955-4.797 5.955-4.797l-2.244-11.08-9.443 7.23z" fill="url(#paint8_linear)"/><path fill-rule="evenodd" clip-rule="evenodd" d="M76.918 42.485s.007 6.518 1.095 10.443c1.087 3.925 3.983 8.616 3.983 8.616s8.612-1.914 11.306-5.19c2.693-3.277 2.715-12.092 2.715-12.092s-1.129-8.37-7.124-9.258c-5.995-.887-11.975 7.481-11.975 7.481z" fill="#FF80A2"/><path fill-rule="evenodd" clip-rule="evenodd" d="M73.525 35.13c-.778 6.813 4.531 9.396 12.463 9.387 7.932-.01 9.769 2.965 9.901 4.232.133 1.266-3.694 7.271-2.463 11.12 1.23 3.849 5.002 6.977 9.119 4.672 4.116-2.305 4.941-3.616 6.614-3.263 1.672.352 7.787-.204 10.021-4.57 2.234-4.367-2.757-8.254-3.511-10.044-.753-1.79-.457-2.893.05-3.945.507-1.051 1.604-6.05-1.321-8.185-2.925-2.135-9.034-1.547-10.304-2.627-1.27-1.08-3.249-6.544-8.13-6.808-4.882-.264-8.765 2.88-11.783 2.175-3.018-.703-9.879 1.042-10.656 7.855z" fill="url(#paint9_linear)"/><ellipse cx="94.925" cy="47.118" rx="1.803" ry="2.693" transform="rotate(-6 94.925 47.118)" fill="#FF80A2"/><path fill-rule="evenodd" clip-rule="evenodd" d="M77.442 79.31s9.02-12.302 10.824-12.176c1.803.127 6.618.87 8.205 4.104 1.586 3.235.655 7.222-.771 11.055-1.426 3.833-3.28 7.53-4.856 10.633-1.576 3.103-3.025 7.563-5.434 4.528-2.41-3.036-6.186-12.36-7.077-15.252l-.89-2.892z" fill="#FF0050"/><path fill-rule="evenodd" clip-rule="evenodd" d="M8.06 57.733l1.637-.63 12.984 33.885-1.638.63L8.059 57.733z" fill="#4411CD"/><path fill-rule="evenodd" clip-rule="evenodd" d="M57.085 84.948l.275 1.738-35.738 5.66-.276-1.737 35.739-5.66z" fill="#4411CD"/><ellipse cx="22.358" cy="91.718" rx="1.425" ry="1.43" transform="rotate(-9 22.358 91.718)" fill="#231653"/><path fill-rule="evenodd" clip-rule="evenodd" d="M21.082 53.786c-1.094-6.85 3.617-13.282 10.522-14.367 6.904-1.085 13.388 3.589 14.482 10.438 1.094 6.85-3.617 13.282-10.522 14.367a12.708 12.708 0 01-5.43-.317c-.906.67-2.577 1.323-5.013 1.958.141-1.806.16-3.358.055-4.657a12.478 12.478 0 01-4.094-7.422zm19.581-3.078c0 .056-.003.11-.003.165-.153 2.691-2.615 5.425-7.383 8.203-4.66-3.267-6.996-6.083-7.003-8.447a4.316 4.316 0 010-.164c.04-2.277 1.847-4.092 4.033-4.055 1.337.023 2.506.733 3.204 1.8.736-1.043 1.93-1.712 3.267-1.69 2.187.037 3.926 1.912 3.885 4.188z" fill="#1832A5"/></g><defs><linearGradient id="paint0_linear" x1="229.358" y1="219.007" x2="246.387" y2="-34.029" gradientUnits="userSpaceOnUse"><stop stop-color="#FFB897"/><stop offset="1" stop-color="#fff"/></linearGradient><linearGradient id="paint1_linear" x1="148.656" y1="125.905" x2="120.966" y2="62.795" gradientUnits="userSpaceOnUse"><stop stop-color="#FE0150"/><stop offset="1" stop-color="#FF5F88"/></linearGradient><linearGradient id="paint2_linear" x1="49.935" y1="114.809" x2="47.986" y2="131.432" gradientUnits="userSpaceOnUse"><stop stop-color="#FF5F88"/><stop offset="1" stop-color="#FF80A2"/></linearGradient><linearGradient id="paint3_linear" x1="125.787" y1="130.054" x2="107.49" y2="100.003" gradientUnits="userSpaceOnUse"><stop stop-color="#E4E3F0"/><stop offset="1" stop-color="#fff"/></linearGradient><linearGradient id="paint4_linear" x1="121.491" y1="69.237" x2="102.136" y2="66.063" gradientUnits="userSpaceOnUse"><stop stop-color="#FF0050" stop-opacity=".986"/><stop offset="1" stop-color="#CC004F"/></linearGradient><linearGradient id="paint5_linear" x1="73.095" y1="135.159" x2="138.671" y2="169.051" gradientUnits="userSpaceOnUse"><stop stop-color="#FF0050" stop-opacity=".986"/><stop offset="1" stop-color="#CC004F"/></linearGradient><linearGradient id="paint6_linear" x1="98.568" y1="85.516" x2="91.208" y2="83.8" gradientUnits="userSpaceOnUse"><stop stop-color="#FF0050" stop-opacity=".986"/><stop offset="1" stop-color="#CC004F"/></linearGradient><linearGradient id="paint7_linear" x1="81.316" y1="51.266" x2="79.546" y2="34.427" gradientUnits="userSpaceOnUse"><stop stop-color="#231653"/><stop offset="1" stop-color="#4411CD"/></linearGradient><linearGradient id="paint8_linear" x1="96.433" y1="61.776" x2="91.988" y2="57.14" gradientUnits="userSpaceOnUse"><stop stop-color="#FF80A2"/><stop offset="1" stop-color="#FF5F88"/></linearGradient><linearGradient id="paint9_linear" x1="120.698" y1="63.15" x2="116.458" y2="22.804" gradientUnits="userSpaceOnUse"><stop stop-color="#231653"/><stop offset="1" stop-color="#4411CD"/></linearGradient></defs></svg>