<svg width="152" height="161" fill="none" xmlns="http://www.w3.org/2000/svg"><path fill-rule="evenodd" clip-rule="evenodd" d="M20.67 57.031h126.36l-3.85 63.456c-.432 7.125-6.337 12.682-13.475 12.682H38.026c-7.135 0-13.039-5.553-13.474-12.676L20.67 57.031z" fill="url(#paint0_linear)"/><mask id="a" maskUnits="userSpaceOnUse" x="20" y="57" width="128" height="77"><path fill-rule="evenodd" clip-rule="evenodd" d="M20.67 57.031h126.36l-3.85 63.458c-.432 7.124-6.336 12.68-13.473 12.68H38.024c-7.134 0-13.037-5.552-13.472-12.673L20.67 57.031z" fill="#fff"/></mask><g mask="url(#a)"><path fill="url(#paint1_linear)" d="M71.676 54.593h24.847V142.5H71.676z"/></g><path fill-rule="evenodd" clip-rule="evenodd" d="M71.92 21.855h24.679v13.338h-24.68V21.856z" fill="#0A2599"/><path fill-rule="evenodd" clip-rule="evenodd" d="M96.304 21.91S115.309-3.294 127.36.495c12.051 3.789 15.376 31.15 12.051 34.583H96.304V21.91z" fill="url(#paint2_linear)"/><mask id="b" maskUnits="userSpaceOnUse" x="96" y="0" width="45" height="36"><path fill-rule="evenodd" clip-rule="evenodd" d="M96.304 21.91S115.309-3.294 127.36.495c12.051 3.789 15.376 31.15 12.051 34.583H96.304V21.91z" fill="#fff"/></mask><g mask="url(#b)"><path fill-rule="evenodd" clip-rule="evenodd" d="M95.366 35.181s28.199-23.267 38.058-19.337c9.86 3.93 8.885 20.56 8.885 20.56H96.645l-1.28-1.223z" fill="#2718A5"/></g><path fill-rule="evenodd" clip-rule="evenodd" d="M71.996 21.91S52.991-3.294 40.94.495c-12.05 3.789-15.376 31.15-12.05 34.583h43.107V21.91z" fill="url(#paint3_linear)"/><mask id="c" maskUnits="userSpaceOnUse" x="27" y="0" width="45" height="36"><path fill-rule="evenodd" clip-rule="evenodd" d="M71.996 21.91S52.991-3.294 40.94.495c-12.05 3.789-15.376 31.15-12.05 34.583h43.107V21.91z" fill="#fff"/></mask><g mask="url(#c)"><path fill-rule="evenodd" clip-rule="evenodd" d="M72.934 35.181s-28.2-23.267-38.058-19.337c-9.86 3.93-8.885 20.56-8.885 20.56h45.664l1.279-1.223z" fill="#2718A5"/></g><path fill-rule="evenodd" clip-rule="evenodd" d="M16.018 34.013H152v28.33H16.018v-28.33z" fill="url(#paint4_linear)"/><mask id="d" maskUnits="userSpaceOnUse" x="16" y="34" width="137" height="29"><path fill-rule="evenodd" clip-rule="evenodd" d="M16.018 34.013H152v28.33H16.018v-28.33z" fill="#fff"/></mask><g mask="url(#d)"><path fill="url(#paint5_linear)" d="M68.694 31.84h30.81v37.231h-30.81z"/></g><ellipse cx="44.125" cy="117.212" rx="31.147" ry="30.909" fill="#fff"/><path fill-rule="evenodd" clip-rule="evenodd" d="M.533 121.236c-3.7-22.55 12.237-43.726 35.596-47.297 23.358-3.572 45.293 11.813 48.992 34.363 3.7 22.55-12.236 43.725-35.595 47.297a44.148 44.148 0 01-18.366-1.045c-3.069 2.207-8.722 4.355-16.962 6.446.477-5.946.539-11.056.184-15.329C7.229 139.54 2.148 131.069.534 121.236zm65.847-10.015c-.003.191-.01.381-.01.57-.503 9.303-8.56 18.755-24.172 28.358-15.255-11.295-22.9-21.029-22.923-29.2a15.75 15.75 0 010-.571c.134-7.869 6.045-14.144 13.203-14.016 4.376.079 8.205 2.532 10.49 6.224 2.409-3.608 6.318-5.923 10.694-5.845 7.158.129 12.852 6.611 12.718 14.48z" fill="url(#paint6_linear)"/><defs><linearGradient id="paint0_linear" x1="165.133" y1="172.544" x2="165.133" y2="81.332" gradientUnits="userSpaceOnUse"><stop stop-color="#F1603F"/><stop offset="1" stop-color="#FFC9B0"/></linearGradient><linearGradient id="paint1_linear" x1="99.181" y1="110.055" x2="99.181" y2="3.34" gradientUnits="userSpaceOnUse"><stop stop-color="#7388E4"/><stop offset="1" stop-color="#1832A5"/></linearGradient><linearGradient id="paint2_linear" x1="140.071" y1="34.197" x2="140.071" y2="0" gradientUnits="userSpaceOnUse"><stop stop-color="#1832A5"/><stop offset="1" stop-color="#7388E4"/></linearGradient><linearGradient id="paint3_linear" x1="28.229" y1="34.197" x2="28.229" y2="0" gradientUnits="userSpaceOnUse"><stop stop-color="#1832A5"/><stop offset="1" stop-color="#7388E4"/></linearGradient><linearGradient id="paint4_linear" x1="171.482" y1="76.994" x2="171.482" y2="43.055" gradientUnits="userSpaceOnUse"><stop stop-color="#F1603F"/><stop offset="1" stop-color="#FFC9B0"/></linearGradient><linearGradient id="paint5_linear" x1="99.117" y1="68.135" x2="99.117" y2="31.84" gradientUnits="userSpaceOnUse"><stop stop-color="#1832A5"/><stop offset="1" stop-color="#7388E4"/></linearGradient><linearGradient id="paint6_linear" x1="-24.917" y1="161" x2="19.886" y2="48.777" gradientUnits="userSpaceOnUse"><stop stop-color="#0BAC53"/><stop offset="1" stop-color="#20E879"/></linearGradient></defs></svg>