<svg width="234" height="107" fill="none" xmlns="http://www.w3.org/2000/svg"><ellipse cx="117" cy="94.529" rx="117" ry="12.471" fill="url(#paint0_linear)"/><path fill-rule="evenodd" clip-rule="evenodd" d="M95.129 65.894c1.026.706 4.067 3.87 5.404 7.12 1.399 3.4 1.065 6.88.721 7.056-.674.342-3.933 2.92-3.343 4.077.59 1.155 3.397 2.778 6.219-.182 2.822-2.96 5.723-3.18 5.028-4.541-.696-1.363-2.766-3.605-3.135-4.691-.599-1.762-.205-4.254-.899-7.033-.722-2.894-2.185-4.834-2.009-5.867.345-2.025-10.086 2.613-7.986 4.06zm62.417-26.865s4.971-4.484 7.192-9.092c2.221-4.608 3.473-12.307 3.473-12.307s1.96 8.345.134 12.803c-1.825 4.457-6.3 9.446-6.3 9.446l-4.499-.85zm-24.852 17.497s6.379 9.166 8.96 10.801c2.581 1.635 5.095 2.978 9.422 6.164 4.327 3.187-2.388 6.916-3.143 6.89-.755-.026-4.794.13-4.84 1.427-.045 1.297 1.621 4.074 5.527 2.85 3.906-1.223 3.866.3 5.471-1.055 1.606-1.356 4.235-4.76 4.276-5.921.04-1.16-.342-5.79.944-7.395 1.286-1.604 1.011-6.96 1.086-9.104.075-2.145-2.916-7.78-4.143-8.801-1.228-1.021-23.56 4.144-23.56 4.144z" fill="#FB6948"/><path fill-rule="evenodd" clip-rule="evenodd" d="M88.354 65.58c4.199 5.009 13 7.517 24.456 6.887 11.457-.63 28.291-17.938 38.459-11.298 10.168 6.64 16.908-4.625 16.908-4.625s-1.259-16.002-8.002-20.758c-4.464-3.148-10.529-.684-24.569 2.275-6.149 1.296-21.426.172-30.004 2.81-9.353 2.876-16.735 10.05-22.071 8.838-2.676 1.423.624 10.861 4.823 15.87z" fill="url(#paint1_linear)"/><path fill-rule="evenodd" clip-rule="evenodd" d="M146.599 57.408s8.971 12.303 11.918 13.113c2.947.81 4.831.849 7.652 2.289 2.82 1.44 3.553 6.559 2.751 7.4-.802.84-3.016.167-4.475 1.813-.346.39.234 2.477 1.291 3.158.901.58 2.655.093 4.522.158 2.879.1 5.54-4.528 5.207-5.77-.396-1.477-1.616-4.765-1.917-5.887-.301-1.121-.567-3.603.193-5.512.76-1.91-.592-2.472-3.05-7.063-2.458-4.592-2.257-10.324-3.73-10.942-1.473-.617-20.362 7.243-20.362 7.243z" fill="url(#paint2_linear)"/><path fill-rule="evenodd" clip-rule="evenodd" d="M60.311 83.4s5.314.496 6.56-1.663c1.244-2.16 4.014-9.603 6.728-10.929 2.714-1.325 5.807-2.076 10.346-.856 1.217.326 20.512 2.876 21.609.752 2.994-5.8-7.113-24.532-13.636-23.653-4.935 1.252-13.72.163-14.9-.52-1.18-.681-3.65-.972-6.68 1.191-3.032 2.164-3.205 3.596-5.623 6.657-2.417 3.06-5.513 4.624-5.547 7.15-.034 2.528 2.736 2.974 2.591 5.262-.145 2.288-5.28 11.462-5.914 12.562-.634 1.1-2.289 3.357-1.445 3.845.844.488 5.911.202 5.911.202z" fill="url(#paint3_linear)"/><mask id="a" maskUnits="userSpaceOnUse" x="54" y="46" width="53" height="38"><path fill-rule="evenodd" clip-rule="evenodd" d="M60.311 83.4s5.314.496 6.56-1.663c1.244-2.16 4.014-9.603 6.728-10.929 2.714-1.325 5.807-2.076 10.346-.856 1.217.326 20.512 2.876 21.609.752 2.994-5.8-7.113-24.532-13.636-23.653-4.935 1.252-13.72.163-14.9-.52-1.18-.681-3.65-.972-6.68 1.191-3.032 2.164-3.205 3.596-5.623 6.657-2.417 3.06-5.513 4.624-5.547 7.15-.034 2.528 2.736 2.974 2.591 5.262-.145 2.288-5.28 11.462-5.914 12.562-.634 1.1-2.289 3.357-1.445 3.845.844.488 5.911.202 5.911.202z" fill="#fff"/></mask><g mask="url(#a)"><path fill-rule="evenodd" clip-rule="evenodd" d="M53.263 78.918s4.189 4.5 5.04 5.288c.85.788-6.556 3.04-6.556 3.04l1.516-8.328z" fill="#FF0050"/></g><path fill-rule="evenodd" clip-rule="evenodd" d="M96.092 64.285c-.035 1.244-1.037 5.513-3.04 8.401-2.095 3.024-4.45 6.746-4.952 7.052-.627.382-1.913 1.328-2.59 1.475-1.95.422-3.258-.551-3.74.283-.65 1.124-.354 4.83 3.591 3.987 3.946-.842 6.516.23 7.282-1.094s2.015-4.618 2.727-5.519c1.154-1.46 4.203-2.51 6.16-4.604 2.038-2.181 3.103-4.41 4.068-4.825.25-.107.268-.322.112-.606-1.024-1.866-9.556-6.76-9.618-4.55z" fill="#FF8F74"/><path fill-rule="evenodd" clip-rule="evenodd" d="M73.016 53.555s3.524 4.141 2.831 6.453c-.693 2.311.409 9.23 2.098 11.433 1.69 2.203 3.893 2.616 5.889 1.169 1.995-1.447 2.443-3.784 3.567-4.6 1.123-.814 6.85-.945 7.248-3.246.398-2.3-1.566-4.71-7.22-7.932-5.652-3.223-7.74-6.76-8.063-7.204" fill="url(#paint4_linear)"/><path fill-rule="evenodd" clip-rule="evenodd" d="M59.729 22.205c-1.515-10.95-11.734-18.544-22.826-16.96C25.81 6.828 18.047 16.989 19.56 27.939 21.076 38.89 31.295 46.484 42.387 44.9a20.496 20.496 0 008.176-3.028c1.703.596 4.57.807 8.6.633-1.058-2.686-1.809-5.043-2.253-7.07 2.375-3.829 3.48-8.454 2.819-13.23z" fill="url(#paint5_linear)"/><path fill-rule="evenodd" clip-rule="evenodd" d="M43.381 27.739c-.258.39-.525.796-.8 1.216l-4.797.504c.497-.82.956-1.556 1.374-2.224 1.83-2.931 2.856-4.572 2.667-6.363-.224-2.13-1.763-3.497-3.927-3.27-1.944.204-3.736 1.851-4.894 3.5l-.579-5.496c1.377-1.673 3.582-3.015 6.216-3.292 4.673-.49 7.827 2.966 8.203 6.538.331 3.142-1.229 5.504-3.463 8.887zm-.397 7.114a2.962 2.962 0 01-2.67 3.29 2.986 2.986 0 01-3.297-2.664c-.178-1.687 1.012-3.116 2.67-3.29 1.69-.177 3.119.977 3.297 2.664z" fill="#fff"/><defs><linearGradient id="paint0_linear" x1="-29.78" y1="75.838" x2="-29.78" y2="103.257" gradientUnits="userSpaceOnUse"><stop stop-color="#FFD1BC"/><stop offset="1" stop-color="#fff"/></linearGradient><linearGradient id="paint1_linear" x1="84.971" y1="45.76" x2="85.307" y2="66.543" gradientUnits="userSpaceOnUse"><stop stop-color="#FFB89F"/><stop offset="1" stop-color="#FF8266"/></linearGradient><linearGradient id="paint2_linear" x1="125.523" y1="11.784" x2="139.68" y2="64.739" gradientUnits="userSpaceOnUse"><stop stop-color="#FFB89F"/><stop offset="1" stop-color="#FF8266"/></linearGradient><linearGradient id="paint3_linear" x1="66.299" y1="57.617" x2="86.585" y2="63.22" gradientUnits="userSpaceOnUse"><stop stop-color="#FFB89F"/><stop offset="1" stop-color="#FF8266"/></linearGradient><linearGradient id="paint4_linear" x1="71.148" y1="53.852" x2="77.648" y2="66.293" gradientUnits="userSpaceOnUse"><stop stop-color="#FFB79E"/><stop offset="1" stop-color="#F2512D"/></linearGradient><linearGradient id="paint5_linear" x1="4.268" y1="48.207" x2="12.884" y2="2.033" gradientUnits="userSpaceOnUse"><stop stop-color="#1832A5"/><stop offset="1" stop-color="#5876FE"/></linearGradient></defs></svg>