<svg width="96" height="80" fill="none" xmlns="http://www.w3.org/2000/svg"><path d="M0 41.09c0-12.15 9.85-22 22-22h52c12.15 0 22 9.85 22 22v29.93A8.981 8.981 0 0187.019 80H8.98A8.981 8.981 0 010 71.019V41.09z" fill="url(#paint0_linear)"/><path fill="#FD8B75" d="M21.231 19.091h7.385V80h-7.385zm46.154 0h7.385V80h-7.385z"/><path fill-rule="evenodd" clip-rule="evenodd" d="M28.615 19.211C28.615 8.601 37.35 0 48.122 0c10.773 0 19.506 8.601 19.506 19.211H62.03c0-7.564-6.226-13.697-13.907-13.697s-13.907 6.133-13.907 13.697h-5.6z" fill="#231952"/><path fill-rule="evenodd" clip-rule="evenodd" d="M57.924 43.961c.044.057.088.112.13.17 2.232 2.686 6.813 3.75 13.742 3.19 2.154-6.765 2.323-11.38.505-13.843a5.791 5.791 0 00-.127-.171c-1.798-2.337-5.012-2.919-7.177-1.3-1.324.99-1.95 2.573-1.825 4.188-1.544-.553-3.26-.386-4.583.603-2.166 1.62-2.463 4.826-.665 7.163z" fill="#FD87A4" stroke="#fff" stroke-width="1.496"/><ellipse rx="7.69" ry="7.67" transform="matrix(.88318 .46904 -.48027 .87712 81.552 53.061)" fill="url(#paint1_linear)" stroke="#fff" stroke-width="1.995"/><ellipse rx="7.69" ry="7.67" transform="matrix(.88318 .46904 -.48027 .87712 81.552 53.061)" fill="#22BF9B" stroke="#fff" stroke-width="1.496"/><path d="M80.088 57.317l.404-.737c1.164.29 2.243-.112 2.761-1.058.683-1.246-.04-2.17-.808-2.989-.481-.514-.848-.955-.624-1.364.19-.346.695-.442 1.286-.128.6.32 1.108.917 1.323 1.396l.782-1.429a4.142 4.142 0 00-1.079-1.078l.369-.673-1.201-.638-.409.746c-1.095-.264-2.102.117-2.585 1-.658 1.2.027 2.104.786 2.918.523.548.875.993.631 1.439-.244.446-.842.492-1.489.149-.655-.349-1.243-1.06-1.42-1.74l-.836 1.528c.23.428.674.945 1.277 1.347l-.369.673 1.201.638z" fill="#fff"/><defs><linearGradient id="paint0_linear" x1="48" y1="19.091" x2="48" y2="80" gradientUnits="userSpaceOnUse"><stop stop-color="#FED0BE"/><stop offset="1" stop-color="#FDA691"/></linearGradient><linearGradient id="paint1_linear" x1="-5.141" y1="7.145" x2="5.189" y2="27.407" gradientUnits="userSpaceOnUse"><stop stop-color="#03C6A1"/><stop offset="1" stop-color="#6464B0"/></linearGradient></defs></svg>