<svg width="24" height="24" xmlns="http://www.w3.org/2000/svg"><defs><linearGradient x1="50%" y1="0%" x2="50%" y2="100%" id="a"><stop stop-color="#EAE6F2" offset="0%"/><stop stop-color="#665980" offset="100%"/></linearGradient></defs><path d="M15.5 5h3v4.5h-3V5zm-3.2.856l2.25 3.898-2.598 1.5-2.25-3.897 2.598-1.5zM7.358 9.701l3.897 2.25-1.5 2.599-3.897-2.25 1.5-2.599zM5.002 15.5h4.5v3h-4.5v-3zm4.754 3.949l1.5 2.598-3.897 2.25-1.5-2.599 3.897-2.25zm2.198 3.295l2.598 1.5-2.25 3.897-2.598-1.5 2.25-3.897zm3.547 1.752h3v4.5h-3v-4.5zm6.55-1.756l2.249 3.896-2.599 1.5-2.248-3.897 2.598-1.499zm2.195-3.293l3.897 2.252-1.5 2.596-3.897-2.252 1.5-2.596zm.253-3.951h4.5v3h-4.5v-3zm2.14-5.8l1.5 2.599-3.898 2.25-1.5-2.599 3.898-2.25zm-4.94-3.841l2.598 1.5-2.25 3.897-2.598-1.5 2.25-3.897z" transform="rotate(46 20.39 8.608)" fill="url(#a)" fill-rule="evenodd"/></svg>